<svg width="152" height="36" viewBox="0 0 152 36" fill="none" xmlns="http://www.w3.org/2000/svg">
<g filter="url(#filter0_dd_22_939)">
<g clip-path="url(#clip0_22_939)">
<path d="M2 11C2 5.47715 6.47715 1 12 1H140C145.523 1 150 5.47715 150 11V23C150 28.5228 145.523 33 140 33H12C6.47716 33 2 28.5228 2 23V11Z" fill="#335CFF"/>
<path d="M2 11C2 5.47715 6.47715 1 12 1H140C145.523 1 150 5.47715 150 11V23C150 28.5228 145.523 33 140 33H12C6.47716 33 2 28.5228 2 23V11Z" fill="url(#paint0_linear_22_939)" fill-opacity="0.16"/>
<g filter="url(#filter1_d_22_939)">
<path d="M25.6269 28.2982C24.2698 24.0151 22.9127 19.7321 21.5388 15.3982C21.7335 15.3699 21.867 15.3247 22.0005 15.3247C24.4478 15.3247 26.8895 15.3247 29.3312 15.3303C29.9097 15.3303 29.9542 15.4264 29.7762 15.9915C28.8584 18.8675 27.9463 21.7549 27.0397 24.6367C26.6559 25.8459 26.2721 27.0494 25.8883 28.2586C25.7993 28.2642 25.7159 28.2812 25.6269 28.2982ZM26.8617 27.8913C29.8318 23.7439 32.8019 19.6021 35.8054 15.4095C35.633 15.3586 35.5662 15.319 35.4995 15.319C34.0033 15.3134 32.5071 15.2964 31.0109 15.336C30.8274 15.3417 30.5548 15.6242 30.4881 15.8276C29.4758 18.8845 28.4858 21.9527 27.4902 25.0209C27.201 25.925 26.9173 26.8347 26.6281 27.7388C26.7059 27.7953 26.7838 27.8461 26.8617 27.8913ZM18.3852 15.8558H19.2139C19.1583 15.7315 19.1527 15.6863 19.1305 15.6637C18.9692 15.5394 18.6466 15.3586 18.6688 15.3021C18.7968 14.9292 19.0526 15.1495 19.2974 15.206C19.6144 15.2738 19.9481 15.3417 20.2651 15.3021C20.7268 15.2456 20.927 15.466 21.0549 15.8671C21.5722 17.5001 22.1006 19.1388 22.629 20.7661C23.3354 22.9585 24.0473 25.1565 24.7537 27.3489C24.7982 27.4845 24.8093 27.6257 24.7203 27.8405C24.5701 27.6879 24.3866 27.5579 24.2587 27.3884C22.6902 25.213 21.1328 23.0263 19.5588 20.8508C19.4197 20.6531 19.1917 20.5231 19.0193 20.3762C19.0804 20.2689 19.1694 20.1163 19.264 19.9637C19.0582 19.9016 18.8468 19.8338 18.6077 19.7603C18.6299 19.5569 18.6633 19.3422 18.6744 19.1331C18.6855 18.7432 18.6077 18.4494 18.1015 18.472C17.9347 18.4777 17.7622 18.2799 17.5787 18.1669C18.2016 17.5284 18.1405 17.2967 17.4118 17.0763C17.3562 16.8277 17.2839 16.5791 17.245 16.3305C17.2283 16.2005 17.2283 16.031 17.295 15.9349C17.3506 15.8615 17.5843 15.8106 17.6232 15.8558C17.7122 15.9632 17.7456 16.1271 17.7845 16.2683C17.8012 16.3248 17.7789 16.3983 17.7734 16.4604C17.829 16.4604 17.8846 16.4661 17.9402 16.4717C17.9402 16.2062 17.9402 15.9406 17.9402 15.6807C17.9402 15.5451 17.9235 15.4038 17.968 15.2851C17.9847 15.2399 18.2072 15.2117 18.2573 15.2625C18.3407 15.3417 18.3741 15.4886 18.4074 15.6129C18.4186 15.6637 18.3963 15.7372 18.3852 15.8558ZM29.4814 14.6297H22.0672C22.095 14.4828 22.0784 14.3754 22.1284 14.3189C22.7625 13.5787 23.3965 12.8498 24.0473 12.1265C24.1196 12.0418 24.2753 11.9909 24.3866 11.9909C24.7759 11.9853 25.1597 12.0361 25.2153 11.4541C25.2209 11.3581 25.6102 11.3016 25.7938 11.2394C25.7548 10.9908 25.6547 10.7478 25.7159 10.5614C25.7882 10.3466 26.1052 10.5331 26.1497 10.8552C26.1664 10.9738 26.1497 11.1038 26.1497 11.279C26.895 11.2055 27.1509 11.8271 27.5347 12.2339C28.1298 12.8554 28.6805 13.5222 29.2422 14.1777C29.3423 14.2794 29.3868 14.4376 29.4814 14.6297ZM31.2501 14.6805C32.7352 14.6805 34.2202 14.6862 35.7108 14.6749C36.1002 14.6692 36.0279 14.415 35.8888 14.1777C35.633 13.7313 35.3771 13.2849 35.1157 12.8441C34.6429 12.0474 34.1702 11.2451 33.6084 10.3014C32.7407 11.7932 31.9342 13.1606 31.1333 14.5336C31.1778 14.5732 31.2112 14.6297 31.2501 14.6805ZM30.4047 14.5958C29.4703 13.4826 28.636 12.4769 27.7961 11.4767C27.8183 11.4259 27.8406 11.375 27.8628 11.3129H28.4858C28.775 11.3129 28.9975 11.2903 29.0587 10.8891C29.1365 10.4145 29.5648 10.68 29.8374 10.6518C29.9764 10.6405 30.2545 10.7987 30.2656 10.9004C30.3101 11.4315 30.616 11.3072 30.8163 11.262C30.9331 10.9625 30.9942 10.5614 31.1111 10.5501C31.6728 10.4766 31.2334 11.0304 31.5171 11.3129C31.5783 11.1038 31.5838 10.9456 31.6617 10.8439C31.734 10.7478 31.8897 10.6518 32.001 10.6631C32.0955 10.6744 32.2346 10.8382 32.2401 10.9343C32.2513 11.1321 32.229 11.3581 32.1345 11.5219C31.5894 12.5164 31.0332 13.4826 30.4047 14.5958ZM21.2162 11.6689C21.3664 11.6293 21.5889 11.5445 21.6779 11.6123C22.0227 11.8892 22.3787 11.8384 22.7514 11.7423C22.8848 11.7028 23.0239 11.6293 23.1184 11.5276C23.1629 11.4767 23.124 11.2507 23.0795 11.2394C22.9405 11.1999 22.7625 11.1716 22.6346 11.2281C22.3008 11.3694 22.0283 11.3863 21.7446 11.0982C21.6723 11.0247 21.422 11.1038 21.2663 11.1377C20.9938 11.2055 20.7379 11.3242 20.4654 11.3694C20.2874 11.3976 19.9481 11.3072 19.9425 11.3355C19.8591 11.6519 19.6923 12.0531 19.8091 12.3074C20.1428 13.0193 20.5877 13.6748 20.9993 14.3528C21.0327 14.4093 21.1161 14.4206 21.1996 14.4715C21.3108 14.3359 21.4109 14.2229 21.5166 14.1042C21.461 14.1042 21.4109 14.1042 21.3609 14.0986C21.3052 13.8443 21.2496 13.59 21.194 13.3414C21.4721 13.3018 21.7558 13.2679 22.0339 13.234C22.0561 13.2962 22.0784 13.3527 22.095 13.4148C22.4566 12.9798 22.8125 12.539 23.2019 12.0644C22.7959 11.8836 22.629 11.9401 22.5344 12.2848C22.4955 12.4147 22.3008 12.5616 22.1618 12.5786C22.0505 12.5955 21.8948 12.4543 21.7947 12.3469C21.689 12.2452 21.6334 12.1096 21.55 11.9853C21.4498 12.1039 21.3553 12.2395 21.2385 12.3413C21.1161 12.4486 20.9548 12.6068 20.8269 12.5955C20.7045 12.5842 20.5599 12.3978 20.4932 12.2565C20.432 12.1152 20.4542 11.9344 20.4487 11.8666C20.7546 11.7932 20.9826 11.7197 21.2162 11.6689ZM19.1639 14.6692H19.492H19.8146C20.2985 14.6636 20.3597 14.5619 20.115 14.1212C19.7812 13.5053 19.4253 12.912 19.086 12.3017C18.8858 11.9457 18.5632 11.9401 18.2294 11.9853C18.146 11.9966 18.0181 12.1378 18.007 12.2226C18.0014 12.313 18.1126 12.4882 18.185 12.4938C18.5465 12.5221 18.6688 12.7255 18.6299 13.0532C18.591 13.3866 18.7745 13.8104 18.2461 13.9686C18.1293 14.0081 18.0181 14.2681 18.0181 14.4263C18.0125 14.4997 18.2573 14.6353 18.4019 14.6579C18.6522 14.6975 18.9136 14.6692 19.1639 14.6692ZM16.9057 13.9516C16.8278 14.0759 16.6943 14.2003 16.6943 14.3246C16.6943 14.4432 16.8445 14.5562 16.9224 14.6749C17.0447 14.5732 17.1671 14.4771 17.3729 14.302C17.156 14.1438 17.0336 14.0533 16.9057 13.9516ZM15.7321 14.2681C15.6097 14.285 15.5041 14.4432 15.3928 14.5393C15.4985 14.6466 15.5875 14.8105 15.6987 14.8275C15.8044 14.8388 15.9379 14.6975 16.1659 14.5506C15.9601 14.4093 15.8378 14.2568 15.7321 14.2681ZM12.1001 11.3581C12.0612 11.5389 12.0334 11.7254 12 11.9062C12.1446 11.9175 12.2892 11.9288 12.4283 11.9344L12.3727 11.3807C12.2725 11.375 12.1891 11.3637 12.1001 11.3581ZM15.3761 7.9565C15.1815 7.91695 14.9868 7.88305 14.7977 7.84914C14.7921 8.00171 14.781 8.14862 14.7754 8.30118C14.9701 8.28423 15.1648 8.27293 15.365 8.26163C15.3706 8.15992 15.3706 8.05821 15.3761 7.9565ZM13.4128 8.99619C13.4072 8.88318 13.2292 8.78712 13.1291 8.68541C13.0234 8.79277 12.8454 8.89448 12.8343 9.01314C12.8232 9.12615 12.99 9.25611 13.1402 9.44822C13.2681 9.24481 13.4239 9.11485 13.4128 8.99619ZM19.759 10.1941C19.581 10.1658 19.3975 10.1376 19.2195 10.115C19.2084 10.2562 19.2028 10.3975 19.1917 10.5388H19.7423C19.7423 10.4258 19.7534 10.3127 19.759 10.1941ZM12.3504 13.234C12.356 13.3527 12.5284 13.5448 12.6229 13.5448C12.7342 13.5448 12.9233 13.3753 12.94 13.2679C12.9567 13.1606 12.7954 13.0193 12.6563 12.8159C12.5061 13.008 12.3393 13.1267 12.3504 13.234ZM19.2584 6.42523H18.7022C18.7078 6.55519 18.7078 6.6908 18.7133 6.82076C18.8969 6.79816 19.0804 6.76991 19.2695 6.7473C19.264 6.63429 19.2584 6.53259 19.2584 6.42523ZM16.3717 5.70197C16.2661 5.69632 16.1548 5.88278 16.0436 5.97884C16.1493 6.08055 16.2382 6.22746 16.3662 6.26136C16.4552 6.28397 16.5942 6.16531 16.7833 6.06925C16.5942 5.88843 16.4885 5.71327 16.3717 5.70197ZM22.1507 10.115C22.134 9.99632 21.956 9.91156 21.8503 9.8042C21.7502 9.91721 21.5778 10.0189 21.5666 10.1432C21.5611 10.2506 21.7335 10.3692 21.8892 10.567C22.0227 10.3579 22.1729 10.2223 22.1507 10.115ZM14.6864 9.27306C14.6809 9.36912 14.8589 9.57253 14.9312 9.56123C15.0591 9.53863 15.2426 9.40867 15.2649 9.29566C15.2816 9.1883 15.1258 9.04704 14.9868 8.83232C14.8366 9.03574 14.692 9.14875 14.6864 9.27306ZM25.1152 8.82667C25.0207 8.83232 24.9372 9.00749 24.8482 9.1092C24.965 9.1883 25.0763 9.31261 25.2042 9.33521C25.2932 9.34651 25.4044 9.21655 25.6269 9.06964C25.3655 8.94533 25.232 8.81537 25.1152 8.82667ZM29.5926 8.57805C29.6316 8.70236 29.7706 8.79842 29.8707 8.90578C29.9542 8.79277 30.1043 8.67411 30.0988 8.56675C30.0932 8.44809 29.9375 8.33508 29.7706 8.12036C29.6761 8.34638 29.5704 8.48199 29.5926 8.57805ZM17.1782 6.70775C17.1059 6.69645 16.9224 6.87161 16.9335 6.94507C16.9446 7.07503 17.0559 7.25584 17.1615 7.2841C17.2561 7.3067 17.3896 7.15414 17.6065 7.01853C17.4007 6.85466 17.295 6.7247 17.1782 6.70775ZM17.8234 13.364C17.8345 13.4714 17.9903 13.6522 18.057 13.6409C18.1905 13.6126 18.2962 13.4827 18.4186 13.3922C18.324 13.2849 18.235 13.1775 18.0681 12.9854C17.9458 13.1662 17.8123 13.2736 17.8234 13.364ZM28.2689 10.7365C28.28 10.6574 28.0964 10.4766 28.0241 10.4823C27.9018 10.4992 27.7294 10.6179 27.7015 10.7309C27.6793 10.8269 27.8295 10.9625 27.963 11.1773C28.1187 10.9682 28.2522 10.8608 28.2689 10.7365ZM23.975 10.1093C23.975 10.2223 24.153 10.4032 24.2642 10.4201C24.3643 10.4258 24.5479 10.2506 24.5646 10.1376C24.5813 10.0302 24.4311 9.89461 24.3032 9.69684C24.1419 9.87766 23.9694 9.99632 23.975 10.1093ZM16.5775 18.9127C16.4719 18.9071 16.3606 19.0653 16.2494 19.1614C16.3606 19.2461 16.4607 19.3874 16.5831 19.4156C16.6832 19.4382 16.8111 19.3309 17.0447 19.2348C16.8223 19.0653 16.6999 18.9184 16.5775 18.9127ZM17.3451 10.7648C17.2172 10.8043 17.0837 10.9286 17.0281 11.053C17.0058 11.1095 17.1782 11.3242 17.2728 11.3298C17.3896 11.3355 17.5064 11.1942 17.7177 11.0699C17.5286 10.9117 17.4118 10.7422 17.3451 10.7648ZM14.7031 10.7365C14.5752 10.7817 14.4417 10.923 14.4083 11.0586C14.3917 11.1208 14.5863 11.3355 14.6698 11.3185C14.7921 11.3072 14.9034 11.1547 15.0869 11.0021C14.9089 10.8665 14.7699 10.7083 14.7031 10.7365ZM16.4941 15.1439C16.3773 15.2004 16.2605 15.3473 16.2382 15.4716C16.2271 15.5394 16.4218 15.7428 16.4774 15.7259C16.5998 15.692 16.6943 15.5564 16.8723 15.3982C16.6943 15.2682 16.5553 15.1156 16.4941 15.1439ZM20.3875 9.50473C20.2763 9.51038 20.1761 9.65164 20.0649 9.7364C20.165 9.84375 20.2485 9.99632 20.3708 10.0415C20.4487 10.0641 20.5766 9.91156 20.7713 9.7816C20.5933 9.64034 20.4821 9.49908 20.3875 9.50473ZM18.7578 8.49895C18.9469 8.44244 19.1361 8.39159 19.3252 8.34073C19.2862 8.22207 19.2417 8.09776 19.1972 7.98475C19.0193 8.05821 18.8468 8.13167 18.6688 8.20512C18.6911 8.30683 18.7245 8.40289 18.7578 8.49895ZM16.0436 8.23902C16.2216 8.31248 16.4051 8.39159 16.5831 8.47069C16.6109 8.32943 16.6443 8.19382 16.6776 8.04691C16.483 8.02996 16.2939 8.01866 16.1048 8.00171L16.0436 8.23902ZM15.8322 17.3702C15.7655 17.3589 15.5931 17.5397 15.5875 17.6414C15.5819 17.7487 15.721 17.9578 15.7877 17.9578C15.9157 17.9522 16.0436 17.8279 16.2549 17.7035C16.0603 17.534 15.9546 17.3928 15.8322 17.3702ZM16.0714 12.0644C16.1103 12.1887 16.2549 12.3526 16.3662 12.3582C16.4663 12.3639 16.661 12.1774 16.6554 12.0813C16.6498 11.9627 16.4774 11.861 16.3217 11.6802C16.1993 11.8553 16.0491 11.9909 16.0714 12.0644Z" fill="url(#paint1_linear_22_939)" shape-rendering="crispEdges"/>
</g>
<path d="M45.1186 22V11.8182H51.4325V13.1406H46.6548V16.2429H50.9801V17.5604H46.6548V22H45.1186ZM57.4773 18.8331V14.3636H58.9687V22H57.5071V20.6776H57.4275C57.2519 21.0852 56.9702 21.425 56.5824 21.6967C56.1979 21.9652 55.719 22.0994 55.1456 22.0994C54.6551 22.0994 54.2209 21.9917 53.843 21.7763C53.4685 21.5575 53.1735 21.2344 52.9581 20.8068C52.746 20.3793 52.6399 19.8506 52.6399 19.2209V14.3636H54.1264V19.0419C54.1264 19.5623 54.2706 19.9766 54.5589 20.2848C54.8473 20.593 55.2218 20.7472 55.6825 20.7472C55.9609 20.7472 56.2377 20.6776 56.5128 20.5384C56.7912 20.3991 57.0215 20.1887 57.2038 19.907C57.3894 19.6252 57.4806 19.2673 57.4773 18.8331ZM62.3686 11.8182V22H60.8821V11.8182H62.3686ZM65.7709 11.8182V22H64.2844V11.8182H65.7709ZM71.3078 22V14.3636H72.7446V15.5767H72.8241C72.9633 15.1657 73.2086 14.8426 73.5599 14.6072C73.9146 14.3686 74.3156 14.2493 74.7631 14.2493C74.8559 14.2493 74.9652 14.2526 75.0912 14.2592C75.2204 14.2659 75.3215 14.2741 75.3945 14.2841V15.706C75.3348 15.6894 75.2287 15.6712 75.0763 15.6513C74.9238 15.6281 74.7713 15.6165 74.6189 15.6165C74.2676 15.6165 73.9543 15.6911 73.6793 15.8402C73.4075 15.986 73.192 16.1899 73.0329 16.4517C72.8739 16.7102 72.7943 17.0052 72.7943 17.3366V22H71.3078ZM79.6146 22.1541C78.8622 22.1541 78.2143 21.9934 77.6707 21.6719C77.1305 21.3471 76.7129 20.8913 76.4179 20.3047C76.1262 19.7147 75.9804 19.0237 75.9804 18.2315C75.9804 17.4493 76.1262 16.7599 76.4179 16.1634C76.7129 15.5668 77.1238 15.1011 77.6508 14.7663C78.1811 14.4316 78.8009 14.2642 79.5102 14.2642C79.9411 14.2642 80.3587 14.3355 80.763 14.478C81.1674 14.6205 81.5303 14.8442 81.8518 15.1491C82.1733 15.4541 82.4269 15.8501 82.6125 16.3374C82.7981 16.8213 82.8909 17.4096 82.8909 18.1023V18.6293H76.8206V17.5156H81.4342C81.4342 17.1245 81.3547 16.7782 81.1956 16.4766C81.0365 16.1716 80.8128 15.9313 80.5244 15.7557C80.2394 15.58 79.9046 15.4922 79.5201 15.4922C79.1025 15.4922 78.738 15.5949 78.4264 15.8004C78.1182 16.0026 77.8795 16.2678 77.7105 16.5959C77.5448 16.9207 77.4619 17.2737 77.4619 17.6548V18.5249C77.4619 19.0353 77.5514 19.4695 77.7304 19.8274C77.9127 20.1854 78.1662 20.4588 78.491 20.6477C78.8158 20.8333 79.1953 20.9261 79.6295 20.9261C79.9112 20.9261 80.1681 20.8864 80.4001 20.8068C80.6321 20.724 80.8326 20.6013 81.0017 20.4389C81.1707 20.2765 81.3 20.076 81.3895 19.8374L82.7964 20.0909C82.6837 20.5052 82.4816 20.8681 82.1899 21.1797C81.9015 21.4879 81.5386 21.7282 81.1011 21.9006C80.6669 22.0696 80.1714 22.1541 79.6146 22.1541ZM84.4562 24.8636V14.3636H85.9079V15.6016H86.0322C86.1184 15.4425 86.2427 15.2585 86.4051 15.0497C86.5675 14.8409 86.7929 14.6586 87.0812 14.5028C87.3696 14.3438 87.7507 14.2642 88.2247 14.2642C88.8412 14.2642 89.3913 14.42 89.8752 14.7315C90.3591 15.0431 90.7386 15.4922 91.0137 16.0788C91.2921 16.6655 91.4314 17.3714 91.4314 18.1967C91.4314 19.022 91.2938 19.7296 91.0187 20.3196C90.7436 20.9062 90.3658 21.3587 89.8852 21.6768C89.4046 21.9917 88.8561 22.1491 88.2396 22.1491C87.7756 22.1491 87.3961 22.0713 87.1011 21.9155C86.8094 21.7597 86.5807 21.5774 86.415 21.3686C86.2493 21.1598 86.1217 20.9742 86.0322 20.8118H85.9427V24.8636H84.4562ZM85.9129 18.1818C85.9129 18.7187 85.9908 19.1894 86.1466 19.5938C86.3023 19.9981 86.5277 20.3146 86.8227 20.5433C87.1177 20.7687 87.4789 20.8814 87.9065 20.8814C88.3506 20.8814 88.7218 20.7637 89.0201 20.5284C89.3184 20.2898 89.5438 19.9666 89.6963 19.5589C89.852 19.1513 89.9299 18.6922 89.9299 18.1818C89.9299 17.678 89.8537 17.2256 89.7012 16.8246C89.5521 16.4235 89.3267 16.107 89.0251 15.875C88.7268 15.643 88.3539 15.527 87.9065 15.527C87.4756 15.527 87.111 15.638 86.8127 15.8601C86.5178 16.0821 86.294 16.392 86.1416 16.7898C85.9891 17.1875 85.9129 17.6515 85.9129 18.1818ZM96.2295 22.1541C95.5135 22.1541 94.8888 21.9901 94.3552 21.6619C93.8215 21.3338 93.4072 20.8748 93.1123 20.2848C92.8173 19.6948 92.6698 19.0054 92.6698 18.2166C92.6698 17.4245 92.8173 16.7318 93.1123 16.1385C93.4072 15.5452 93.8215 15.0845 94.3552 14.7564C94.8888 14.4283 95.5135 14.2642 96.2295 14.2642C96.9454 14.2642 97.5701 14.4283 98.1037 14.7564C98.6374 15.0845 99.0517 15.5452 99.3466 16.1385C99.6416 16.7318 99.7891 17.4245 99.7891 18.2166C99.7891 19.0054 99.6416 19.6948 99.3466 20.2848C99.0517 20.8748 98.6374 21.3338 98.1037 21.6619C97.5701 21.9901 96.9454 22.1541 96.2295 22.1541ZM96.2344 20.9062C96.6984 20.9062 97.0829 20.7836 97.3878 20.5384C97.6928 20.2931 97.9181 19.9666 98.064 19.5589C98.2131 19.1513 98.2877 18.7022 98.2877 18.2116C98.2877 17.7244 98.2131 17.277 98.064 16.8693C97.9181 16.4583 97.6928 16.1286 97.3878 15.88C97.0829 15.6314 96.6984 15.5071 96.2344 15.5071C95.7671 15.5071 95.3793 15.6314 95.0711 15.88C94.7662 16.1286 94.5391 16.4583 94.39 16.8693C94.2441 17.277 94.1712 17.7244 94.1712 18.2116C94.1712 18.7022 94.2441 19.1513 94.39 19.5589C94.5391 19.9666 94.7662 20.2931 95.0711 20.5384C95.3793 20.7836 95.7671 20.9062 96.2344 20.9062ZM101.364 22V14.3636H102.801V15.5767H102.881C103.02 15.1657 103.265 14.8426 103.617 14.6072C103.971 14.3686 104.372 14.2493 104.82 14.2493C104.912 14.2493 105.022 14.2526 105.148 14.2592C105.277 14.2659 105.378 14.2741 105.451 14.2841V15.706C105.391 15.6894 105.285 15.6712 105.133 15.6513C104.98 15.6281 104.828 15.6165 104.675 15.6165C104.324 15.6165 104.011 15.6911 103.736 15.8402C103.464 15.986 103.249 16.1899 103.09 16.4517C102.93 16.7102 102.851 17.0052 102.851 17.3366V22H101.364ZM110.669 14.3636V15.5568H106.498V14.3636H110.669ZM107.617 12.5341H109.103V19.7578C109.103 20.0462 109.146 20.2633 109.232 20.4091C109.319 20.5516 109.43 20.6494 109.566 20.7024C109.705 20.7521 109.856 20.777 110.018 20.777C110.137 20.777 110.242 20.7687 110.331 20.7521C110.421 20.7356 110.49 20.7223 110.54 20.7124L110.808 21.9403C110.722 21.9735 110.6 22.0066 110.441 22.0398C110.281 22.0762 110.083 22.0961 109.844 22.0994C109.453 22.1061 109.088 22.0365 108.75 21.8906C108.412 21.7448 108.139 21.5194 107.93 21.2145C107.721 20.9096 107.617 20.5268 107.617 20.0661V12.5341Z" fill="white"/>
<path d="M128.5 12.5V14H124.75V22.25H133V18.5H134.5V23C134.5 23.1989 134.421 23.3897 134.28 23.5303C134.14 23.671 133.949 23.75 133.75 23.75H124C123.801 23.75 123.61 23.671 123.47 23.5303C123.329 23.3897 123.25 23.1989 123.25 23V13.25C123.25 13.0511 123.329 12.8603 123.47 12.7197C123.61 12.579 123.801 12.5 124 12.5H128.5ZM136.75 10.25V16.25H135.25V12.8098L129.405 18.6552L128.345 17.5948L134.189 11.75H130.75V10.25H136.75Z" fill="white"/>
</g>
<path d="M12 1.5H140C145.247 1.5 149.5 5.7533 149.5 11V23C149.5 28.2467 145.247 32.5 140 32.5H12C6.7533 32.5 2.5 28.2467 2.5 23V11C2.5 5.75329 6.75329 1.5 12 1.5Z" stroke="url(#paint2_linear_22_939)"/>
</g>
<defs>
<filter id="filter0_dd_22_939" x="0" y="0" width="152" height="36" filterUnits="userSpaceOnUse" color-interpolation-filters="sRGB">
<feFlood flood-opacity="0" result="BackgroundImageFix"/>
<feColorMatrix in="SourceAlpha" type="matrix" values="0 0 0 0 0 0 0 0 0 0 0 0 0 0 0 0 0 0 127 0" result="hardAlpha"/>
<feMorphology radius="1" operator="dilate" in="SourceAlpha" result="effect1_dropShadow_22_939"/>
<feOffset/>
<feComposite in2="hardAlpha" operator="out"/>
<feColorMatrix type="matrix" values="0 0 0 0 0.2 0 0 0 0 0.36087 0 0 0 0 1 0 0 0 1 0"/>
<feBlend mode="normal" in2="BackgroundImageFix" result="effect1_dropShadow_22_939"/>
<feColorMatrix in="SourceAlpha" type="matrix" values="0 0 0 0 0 0 0 0 0 0 0 0 0 0 0 0 0 0 127 0" result="hardAlpha"/>
<feOffset dy="1"/>
<feGaussianBlur stdDeviation="1"/>
<feComposite in2="hardAlpha" operator="out"/>
<feColorMatrix type="matrix" values="0 0 0 0 0.0533333 0 0 0 0 0.0693333 0 0 0 0 0.106667 0 0 0 0.24 0"/>
<feBlend mode="normal" in2="effect1_dropShadow_22_939" result="effect2_dropShadow_22_939"/>
<feBlend mode="normal" in="SourceGraphic" in2="effect2_dropShadow_22_939" result="shape"/>
</filter>
<filter id="filter1_d_22_939" x="12" y="5.70184" width="28" height="28.5963" filterUnits="userSpaceOnUse" color-interpolation-filters="sRGB">
<feFlood flood-opacity="0" result="BackgroundImageFix"/>
<feColorMatrix in="SourceAlpha" type="matrix" values="0 0 0 0 0 0 0 0 0 0 0 0 0 0 0 0 0 0 127 0" result="hardAlpha"/>
<feOffset dx="2" dy="4"/>
<feGaussianBlur stdDeviation="1"/>
<feComposite in2="hardAlpha" operator="out"/>
<feColorMatrix type="matrix" values="0 0 0 0 0.1344 0 0 0 0 0.268614 0 0 0 0 0.8256 0 0 0 0.08 0"/>
<feBlend mode="normal" in2="BackgroundImageFix" result="effect1_dropShadow_22_939"/>
<feBlend mode="normal" in="SourceGraphic" in2="effect1_dropShadow_22_939" result="shape"/>
</filter>
<linearGradient id="paint0_linear_22_939" x1="76" y1="1" x2="76" y2="33" gradientUnits="userSpaceOnUse">
<stop stop-color="white"/>
<stop offset="1" stop-color="white" stop-opacity="0"/>
</linearGradient>
<linearGradient id="paint1_linear_22_939" x1="22.0947" y1="5.70184" x2="22.0947" y2="35.582" gradientUnits="userSpaceOnUse">
<stop offset="0.38239" stop-color="white"/>
<stop offset="1" stop-color="white" stop-opacity="0"/>
</linearGradient>
<linearGradient id="paint2_linear_22_939" x1="76" y1="1" x2="76" y2="33" gradientUnits="userSpaceOnUse">
<stop stop-color="white" stop-opacity="0.12"/>
<stop offset="1" stop-color="white" stop-opacity="0"/>
</linearGradient>
<clipPath id="clip0_22_939">
<path d="M2 11C2 5.47715 6.47715 1 12 1H140C145.523 1 150 5.47715 150 11V23C150 28.5228 145.523 33 140 33H12C6.47716 33 2 28.5228 2 23V11Z" fill="white"/>
</clipPath>
</defs>
</svg>
