<svg width="152" height="48" viewBox="0 0 152 48" fill="none" xmlns="http://www.w3.org/2000/svg">
<g filter="url(#filter0_dd_22_854)">
<path d="M2 11.9182C2 6.39537 6.47715 1.91821 12 1.91821H140C145.523 1.91821 150 6.39537 150 11.9182V34.5145C150 40.0374 145.523 44.5145 140 44.5145H12C6.47716 44.5145 2 40.0374 2 34.5145V11.9182Z" fill="#335CFF"/>
<path d="M2 11.9182C2 6.39537 6.47715 1.91821 12 1.91821H140C145.523 1.91821 150 6.39537 150 11.9182V34.5145C150 40.0374 145.523 44.5145 140 44.5145H12C6.47716 44.5145 2 40.0374 2 34.5145V11.9182Z" fill="url(#paint0_linear_22_854)" fill-opacity="0.16"/>
<path d="M2.5 11.9182C2.5 6.67151 6.75329 2.41821 12 2.41821H140C145.247 2.41821 149.5 6.67151 149.5 11.9182V34.5145C149.5 39.7612 145.247 44.0145 140 44.0145H12C6.7533 44.0145 2.5 39.7612 2.5 34.5145V11.9182Z" stroke="url(#paint1_linear_22_854)"/>
<g filter="url(#filter1_d_22_854)">
<path d="M25.6269 34.5145C24.2698 30.2315 22.9127 25.9484 21.5388 21.6145C21.7335 21.5863 21.867 21.5411 22.0005 21.5411C24.4478 21.5411 26.8895 21.5411 29.3312 21.5467C29.9097 21.5467 29.9542 21.6428 29.7762 22.2078C28.8584 25.0839 27.9463 27.9713 27.0397 30.853C26.6559 32.0622 26.2721 33.2658 25.8883 34.475C25.7993 34.4806 25.7159 34.4976 25.6269 34.5145ZM26.8617 34.1077C29.8318 29.9603 32.8019 25.8185 35.8054 21.6258C35.633 21.575 35.5662 21.5354 35.4995 21.5354C34.0033 21.5298 32.5071 21.5128 31.0109 21.5524C30.8274 21.558 30.5548 21.8405 30.4881 22.044C29.4758 25.1009 28.4858 28.1691 27.4902 31.2373C27.201 32.1413 26.9173 33.0511 26.6281 33.9551C26.7059 34.0116 26.7838 34.0625 26.8617 34.1077ZM18.3852 22.0722H19.2139C19.1583 21.9479 19.1527 21.9027 19.1305 21.8801C18.9692 21.7558 18.6466 21.575 18.6688 21.5185C18.7968 21.1455 19.0526 21.3659 19.2974 21.4224C19.6144 21.4902 19.9481 21.558 20.2651 21.5185C20.7268 21.462 20.927 21.6823 21.0549 22.0835C21.5722 23.7165 22.1006 25.3551 22.629 26.9825C23.3354 29.1748 24.0473 31.3729 24.7537 33.5652C24.7982 33.7009 24.8093 33.8421 24.7203 34.0568C24.5701 33.9043 24.3866 33.7743 24.2587 33.6048C22.6902 31.4294 21.1328 29.2426 19.5588 27.0672C19.4197 26.8695 19.1917 26.7395 19.0193 26.5926C19.0804 26.4852 19.1694 26.3327 19.264 26.1801C19.0582 26.1179 18.8468 26.0501 18.6077 25.9767C18.6299 25.7733 18.6633 25.5585 18.6744 25.3495C18.6855 24.9596 18.6077 24.6658 18.1015 24.6884C17.9347 24.694 17.7622 24.4963 17.5787 24.3833C18.2016 23.7447 18.1405 23.5131 17.4118 23.2927C17.3562 23.0441 17.2839 22.7955 17.245 22.5469C17.2283 22.4169 17.2283 22.2474 17.295 22.1513C17.3506 22.0779 17.5843 22.027 17.6232 22.0722C17.7122 22.1796 17.7456 22.3434 17.7845 22.4847C17.8012 22.5412 17.7789 22.6147 17.7734 22.6768C17.829 22.6768 17.8846 22.6825 17.9402 22.6881C17.9402 22.4225 17.9402 22.157 17.9402 21.897C17.9402 21.7614 17.9235 21.6202 17.968 21.5015C17.9847 21.4563 18.2072 21.4281 18.2573 21.4789C18.3407 21.558 18.3741 21.7049 18.4074 21.8292C18.4186 21.8801 18.3963 21.9536 18.3852 22.0722ZM29.4814 20.8461H22.0672C22.095 20.6992 22.0784 20.5918 22.1284 20.5353C22.7625 19.7951 23.3965 19.0662 24.0473 18.3429C24.1196 18.2582 24.2753 18.2073 24.3866 18.2073C24.7759 18.2016 25.1597 18.2525 25.2153 17.6705C25.2209 17.5744 25.6102 17.5179 25.7938 17.4558C25.7548 17.2072 25.6547 16.9642 25.7159 16.7777C25.7882 16.563 26.1052 16.7495 26.1497 17.0716C26.1664 17.1902 26.1497 17.3202 26.1497 17.4953C26.895 17.4219 27.1509 18.0434 27.5347 18.4503C28.1298 19.0718 28.6805 19.7386 29.2422 20.394C29.3423 20.4957 29.3868 20.6539 29.4814 20.8461ZM31.2501 20.8969C32.7352 20.8969 34.2202 20.9026 35.7108 20.8913C36.1002 20.8856 36.0279 20.6313 35.8888 20.394C35.633 19.9476 35.3771 19.5013 35.1157 19.0605C34.6429 18.2638 34.1702 17.4614 33.6084 16.5178C32.7407 18.0095 31.9342 19.3769 31.1333 20.75C31.1778 20.7896 31.2112 20.8461 31.2501 20.8969ZM30.4047 20.8122C29.4703 19.699 28.636 18.6932 27.7961 17.6931C27.8183 17.6423 27.8406 17.5914 27.8628 17.5292H28.4858C28.775 17.5292 28.9975 17.5066 29.0587 17.1055C29.1365 16.6308 29.5648 16.8964 29.8374 16.8681C29.9764 16.8568 30.2545 17.0151 30.2656 17.1168C30.3101 17.6479 30.616 17.5236 30.8163 17.4784C30.9331 17.1789 30.9942 16.7777 31.1111 16.7664C31.6728 16.693 31.2334 17.2467 31.5171 17.5292C31.5783 17.3202 31.5838 17.162 31.6617 17.0603C31.734 16.9642 31.8897 16.8681 32.001 16.8794C32.0955 16.8907 32.2346 17.0546 32.2401 17.1507C32.2513 17.3484 32.229 17.5744 32.1345 17.7383C31.5894 18.7328 31.0332 19.699 30.4047 20.8122ZM21.2162 17.8852C21.3664 17.8457 21.5889 17.7609 21.6779 17.8287C22.0227 18.1056 22.3787 18.0547 22.7514 17.9587C22.8848 17.9191 23.0239 17.8457 23.1184 17.744C23.1629 17.6931 23.124 17.4671 23.0795 17.4558C22.9405 17.4162 22.7625 17.388 22.6346 17.4445C22.3008 17.5857 22.0283 17.6027 21.7446 17.3145C21.6723 17.2411 21.422 17.3202 21.2663 17.3541C20.9938 17.4219 20.7379 17.5405 20.4654 17.5857C20.2874 17.614 19.9481 17.5236 19.9425 17.5518C19.8591 17.8683 19.6923 18.2695 19.8091 18.5237C20.1428 19.2357 20.5877 19.8911 20.9993 20.5692C21.0327 20.6257 21.1161 20.637 21.1996 20.6879C21.3108 20.5522 21.4109 20.4392 21.5166 20.3206C21.461 20.3206 21.4109 20.3206 21.3609 20.3149C21.3052 20.0606 21.2496 19.8064 21.194 19.5578C21.4721 19.5182 21.7558 19.4843 22.0339 19.4504C22.0561 19.5126 22.0784 19.5691 22.095 19.6312C22.4566 19.1961 22.8125 18.7554 23.2019 18.2808C22.7959 18.0999 22.629 18.1564 22.5344 18.5011C22.4955 18.6311 22.3008 18.778 22.1618 18.7949C22.0505 18.8119 21.8948 18.6706 21.7947 18.5633C21.689 18.4616 21.6334 18.326 21.55 18.2016C21.4498 18.3203 21.3553 18.4559 21.2385 18.5576C21.1161 18.665 20.9548 18.8232 20.8269 18.8119C20.7045 18.8006 20.5599 18.6141 20.4932 18.4729C20.432 18.3316 20.4542 18.1508 20.4487 18.083C20.7546 18.0095 20.9826 17.9361 21.2162 17.8852ZM19.1639 20.8856H19.492H19.8146C20.2985 20.88 20.3597 20.7783 20.115 20.3375C19.7812 19.7216 19.4253 19.1283 19.086 18.5181C18.8858 18.1621 18.5632 18.1564 18.2294 18.2016C18.146 18.2129 18.0181 18.3542 18.007 18.439C18.0014 18.5294 18.1126 18.7045 18.185 18.7102C18.5465 18.7384 18.6688 18.9419 18.6299 19.2696C18.591 19.603 18.7745 20.0267 18.2461 20.185C18.1293 20.2245 18.0181 20.4844 18.0181 20.6426C18.0125 20.7161 18.2573 20.8517 18.4019 20.8743C18.6522 20.9139 18.9136 20.8856 19.1639 20.8856ZM16.9057 20.168C16.8278 20.2923 16.6943 20.4166 16.6943 20.5409C16.6943 20.6596 16.8445 20.7726 16.9224 20.8913C17.0447 20.7896 17.1671 20.6935 17.3729 20.5183C17.156 20.3601 17.0336 20.2697 16.9057 20.168ZM15.7321 20.4844C15.6097 20.5014 15.5041 20.6596 15.3928 20.7557C15.4985 20.863 15.5875 21.0269 15.6987 21.0438C15.8044 21.0551 15.9379 20.9139 16.1659 20.767C15.9601 20.6257 15.8378 20.4731 15.7321 20.4844ZM12.1001 17.5744C12.0612 17.7553 12.0334 17.9417 12 18.1225C12.1446 18.1338 12.2892 18.1451 12.4283 18.1508L12.3727 17.597C12.2725 17.5914 12.1891 17.5801 12.1001 17.5744ZM15.3761 14.1729C15.1815 14.1333 14.9868 14.0994 14.7977 14.0655C14.7921 14.2181 14.781 14.365 14.7754 14.5175C14.9701 14.5006 15.1648 14.4893 15.365 14.478C15.3706 14.3763 15.3706 14.2746 15.3761 14.1729ZM13.4128 15.2126C13.4072 15.0995 13.2292 15.0035 13.1291 14.9018C13.0234 15.0091 12.8454 15.1108 12.8343 15.2295C12.8232 15.3425 12.99 15.4725 13.1402 15.6646C13.2681 15.4612 13.4239 15.3312 13.4128 15.2126ZM19.759 16.4105C19.581 16.3822 19.3975 16.3539 19.2195 16.3313C19.2084 16.4726 19.2028 16.6139 19.1917 16.7551H19.7423C19.7423 16.6421 19.7534 16.5291 19.759 16.4105ZM12.3504 19.4504C12.356 19.5691 12.5284 19.7612 12.6229 19.7612C12.7342 19.7612 12.9233 19.5917 12.94 19.4843C12.9567 19.3769 12.7954 19.2357 12.6563 19.0323C12.5061 19.2244 12.3393 19.343 12.3504 19.4504ZM19.2584 12.6416H18.7022C18.7078 12.7716 18.7078 12.9072 18.7133 13.0371C18.8969 13.0145 19.0804 12.9863 19.2695 12.9637C19.264 12.8507 19.2584 12.749 19.2584 12.6416ZM16.3717 11.9183C16.2661 11.9127 16.1548 12.0992 16.0436 12.1952C16.1493 12.2969 16.2382 12.4438 16.3662 12.4777C16.4552 12.5003 16.5942 12.3817 16.7833 12.2856C16.5942 12.1048 16.4885 11.9296 16.3717 11.9183ZM22.1507 16.3313C22.134 16.2127 21.956 16.1279 21.8503 16.0206C21.7502 16.1336 21.5778 16.2353 21.5666 16.3596C21.5611 16.467 21.7335 16.5856 21.8892 16.7834C22.0227 16.5743 22.1729 16.4387 22.1507 16.3313ZM14.6864 15.4894C14.6809 15.5855 14.8589 15.7889 14.9312 15.7776C15.0591 15.755 15.2426 15.625 15.2649 15.512C15.2816 15.4047 15.1258 15.2634 14.9868 15.0487C14.8366 15.2521 14.692 15.3651 14.6864 15.4894ZM25.1152 15.043C25.0207 15.0487 24.9372 15.2239 24.8482 15.3256C24.965 15.4047 25.0763 15.529 25.2042 15.5516C25.2932 15.5629 25.4044 15.4329 25.6269 15.286C25.3655 15.1617 25.232 15.0317 25.1152 15.043ZM29.5926 14.7944C29.6316 14.9187 29.7706 15.0148 29.8707 15.1221C29.9542 15.0091 30.1043 14.8905 30.0988 14.7831C30.0932 14.6645 29.9375 14.5515 29.7706 14.3367C29.6761 14.5628 29.5704 14.6984 29.5926 14.7944ZM17.1782 12.9241C17.1059 12.9128 16.9224 13.088 16.9335 13.1614C16.9446 13.2914 17.0559 13.4722 17.1615 13.5005C17.2561 13.5231 17.3896 13.3705 17.6065 13.2349C17.4007 13.071 17.295 12.9411 17.1782 12.9241ZM17.8234 19.5804C17.8345 19.6877 17.9903 19.8685 18.057 19.8572C18.1905 19.829 18.2962 19.699 18.4186 19.6086C18.324 19.5013 18.235 19.3939 18.0681 19.2018C17.9458 19.3826 17.8123 19.49 17.8234 19.5804ZM28.2689 16.9529C28.28 16.8738 28.0964 16.693 28.0241 16.6986C27.9018 16.7156 27.7294 16.8342 27.7015 16.9472C27.6793 17.0433 27.8295 17.1789 27.963 17.3936C28.1187 17.1846 28.2522 17.0772 28.2689 16.9529ZM23.975 16.3257C23.975 16.4387 24.153 16.6195 24.2642 16.6365C24.3643 16.6421 24.5479 16.467 24.5646 16.3539C24.5813 16.2466 24.4311 16.111 24.3032 15.9132C24.1419 16.094 23.9694 16.2127 23.975 16.3257ZM16.5775 25.1291C16.4719 25.1235 16.3606 25.2817 16.2494 25.3777C16.3606 25.4625 16.4607 25.6037 16.5831 25.632C16.6832 25.6546 16.8111 25.5472 17.0447 25.4512C16.8223 25.2817 16.6999 25.1348 16.5775 25.1291ZM17.3451 16.9811C17.2172 17.0207 17.0837 17.145 17.0281 17.2693C17.0058 17.3258 17.1782 17.5405 17.2728 17.5462C17.3896 17.5518 17.5064 17.4106 17.7177 17.2863C17.5286 17.1281 17.4118 16.9585 17.3451 16.9811ZM14.7031 16.9529C14.5752 16.9981 14.4417 17.1394 14.4083 17.275C14.3917 17.3371 14.5863 17.5518 14.6698 17.5349C14.7921 17.5236 14.9034 17.371 15.0869 17.2185C14.9089 17.0829 14.7699 16.9246 14.7031 16.9529ZM16.4941 21.3603C16.3773 21.4168 16.2605 21.5637 16.2382 21.688C16.2271 21.7558 16.4218 21.9592 16.4774 21.9423C16.5998 21.9083 16.6943 21.7727 16.8723 21.6145C16.6943 21.4846 16.5553 21.332 16.4941 21.3603ZM20.3875 15.7211C20.2763 15.7267 20.1761 15.868 20.0649 15.9528C20.165 16.0601 20.2485 16.2127 20.3708 16.2579C20.4487 16.2805 20.5766 16.1279 20.7713 15.998C20.5933 15.8567 20.4821 15.7154 20.3875 15.7211ZM18.7578 14.7153C18.9469 14.6588 19.1361 14.608 19.3252 14.5571C19.2862 14.4384 19.2417 14.3141 19.1972 14.2011C19.0193 14.2746 18.8468 14.348 18.6688 14.4215C18.6911 14.5232 18.7245 14.6193 18.7578 14.7153ZM16.0436 14.4554C16.2216 14.5289 16.4051 14.608 16.5831 14.6871C16.6109 14.5458 16.6443 14.4102 16.6776 14.2633C16.483 14.2463 16.2939 14.235 16.1048 14.2181L16.0436 14.4554ZM15.8322 23.5865C15.7655 23.5752 15.5931 23.756 15.5875 23.8578C15.5819 23.9651 15.721 24.1742 15.7877 24.1742C15.9157 24.1685 16.0436 24.0442 16.2549 23.9199C16.0603 23.7504 15.9546 23.6091 15.8322 23.5865ZM16.0714 18.2808C16.1103 18.4051 16.2549 18.5689 16.3662 18.5746C16.4663 18.5802 16.661 18.3938 16.6554 18.2977C16.6498 18.179 16.4774 18.0773 16.3217 17.8965C16.1993 18.0717 16.0491 18.2073 16.0714 18.2808Z" fill="url(#paint2_linear_22_854)" shape-rendering="crispEdges"/>
</g>
<path d="M45.1186 28.2163V18.0345H51.4325V19.3569H46.6548V22.4592H50.9801V23.7767H46.6548V28.2163H45.1186ZM57.4773 25.0494V20.5799H58.9687V28.2163H57.5071V26.8939H57.4275C57.2519 27.3015 56.9702 27.6413 56.5824 27.913C56.1979 28.1815 55.719 28.3157 55.1456 28.3157C54.6551 28.3157 54.2209 28.208 53.843 27.9926C53.4685 27.7738 53.1735 27.4507 52.9581 27.0231C52.746 26.5956 52.6399 26.0669 52.6399 25.4372V20.5799H54.1264V25.2582C54.1264 25.7786 54.2706 26.1929 54.5589 26.5011C54.8473 26.8093 55.2218 26.9635 55.6825 26.9635C55.9609 26.9635 56.2377 26.8939 56.5128 26.7547C56.7912 26.6155 57.0215 26.405 57.2038 26.1233C57.3894 25.8415 57.4806 25.4836 57.4773 25.0494ZM62.3686 18.0345V28.2163H60.8821V18.0345H62.3686ZM65.7709 18.0345V28.2163H64.2844V18.0345H65.7709ZM71.3078 28.2163V20.5799H72.7446V21.793H72.8241C72.9633 21.382 73.2086 21.0589 73.5599 20.8236C73.9146 20.5849 74.3156 20.4656 74.7631 20.4656C74.8559 20.4656 74.9652 20.4689 75.0912 20.4755C75.2204 20.4822 75.3215 20.4905 75.3945 20.5004V21.9223C75.3348 21.9057 75.2287 21.8875 75.0763 21.8676C74.9238 21.8444 74.7713 21.8328 74.6189 21.8328C74.2676 21.8328 73.9543 21.9074 73.6793 22.0565C73.4075 22.2023 73.192 22.4062 73.0329 22.668C72.8739 22.9265 72.7943 23.2215 72.7943 23.553V28.2163H71.3078ZM79.6146 28.3704C78.8622 28.3704 78.2143 28.2097 77.6707 27.8882C77.1305 27.5634 76.7129 27.1076 76.4179 26.521C76.1262 25.931 75.9804 25.24 75.9804 24.4478C75.9804 23.6656 76.1262 22.9763 76.4179 22.3797C76.7129 21.7831 77.1238 21.3174 77.6508 20.9826C78.1811 20.6479 78.8009 20.4805 79.5102 20.4805C79.9411 20.4805 80.3587 20.5518 80.763 20.6943C81.1674 20.8368 81.5303 21.0605 81.8518 21.3655C82.1733 21.6704 82.4269 22.0665 82.6125 22.5537C82.7981 23.0376 82.8909 23.6259 82.8909 24.3186V24.8456H76.8206V23.7319H81.4342C81.4342 23.3408 81.3547 22.9945 81.1956 22.6929C81.0365 22.3879 80.8128 22.1477 80.5244 21.972C80.2394 21.7963 79.9046 21.7085 79.5201 21.7085C79.1025 21.7085 78.738 21.8112 78.4264 22.0167C78.1182 22.2189 77.8795 22.4841 77.7105 22.8122C77.5448 23.137 77.4619 23.49 77.4619 23.8711V24.7412C77.4619 25.2516 77.5514 25.6858 77.7304 26.0437C77.9127 26.4017 78.1662 26.6751 78.491 26.864C78.8158 27.0496 79.1953 27.1424 79.6295 27.1424C79.9112 27.1424 80.1681 27.1027 80.4001 27.0231C80.6321 26.9403 80.8326 26.8176 81.0017 26.6552C81.1707 26.4928 81.3 26.2923 81.3895 26.0537L82.7964 26.3072C82.6837 26.7215 82.4816 27.0844 82.1899 27.396C81.9015 27.7042 81.5386 27.9445 81.1011 28.1169C80.6669 28.2859 80.1714 28.3704 79.6146 28.3704ZM84.4562 31.0799V20.5799H85.9079V21.8179H86.0322C86.1184 21.6588 86.2427 21.4748 86.4051 21.266C86.5675 21.0572 86.7929 20.8749 87.0812 20.7191C87.3696 20.5601 87.7507 20.4805 88.2247 20.4805C88.8412 20.4805 89.3913 20.6363 89.8752 20.9478C90.3591 21.2594 90.7386 21.7085 91.0137 22.2951C91.2921 22.8818 91.4314 23.5878 91.4314 24.413C91.4314 25.2383 91.2938 25.9459 91.0187 26.5359C90.7436 27.1226 90.3658 27.575 89.8852 27.8932C89.4046 28.208 88.8561 28.3655 88.2396 28.3655C87.7756 28.3655 87.3961 28.2876 87.1011 28.1318C86.8094 27.976 86.5807 27.7937 86.415 27.5849C86.2493 27.3761 86.1217 27.1905 86.0322 27.0281H85.9427V31.0799H84.4562ZM85.9129 24.3981C85.9129 24.9351 85.9908 25.4057 86.1466 25.8101C86.3023 26.2144 86.5277 26.5309 86.8227 26.7596C87.1177 26.985 87.4789 27.0977 87.9065 27.0977C88.3506 27.0977 88.7218 26.98 89.0201 26.7447C89.3184 26.5061 89.5438 26.1829 89.6963 25.7753C89.852 25.3676 89.9299 24.9085 89.9299 24.3981C89.9299 23.8943 89.8537 23.4419 89.7012 23.0409C89.5521 22.6398 89.3267 22.3233 89.0251 22.0913C88.7268 21.8593 88.3539 21.7433 87.9065 21.7433C87.4756 21.7433 87.111 21.8543 86.8127 22.0764C86.5178 22.2985 86.294 22.6084 86.1416 23.0061C85.9891 23.4038 85.9129 23.8678 85.9129 24.3981ZM96.2295 28.3704C95.5135 28.3704 94.8888 28.2064 94.3552 27.8782C93.8215 27.5501 93.4072 27.0911 93.1123 26.5011C92.8173 25.9111 92.6698 25.2218 92.6698 24.4329C92.6698 23.6408 92.8173 22.9481 93.1123 22.3548C93.4072 21.7615 93.8215 21.3008 94.3552 20.9727C94.8888 20.6446 95.5135 20.4805 96.2295 20.4805C96.9454 20.4805 97.5701 20.6446 98.1037 20.9727C98.6374 21.3008 99.0517 21.7615 99.3466 22.3548C99.6416 22.9481 99.7891 23.6408 99.7891 24.4329C99.7891 25.2218 99.6416 25.9111 99.3466 26.5011C99.0517 27.0911 98.6374 27.5501 98.1037 27.8782C97.5701 28.2064 96.9454 28.3704 96.2295 28.3704ZM96.2344 27.1226C96.6984 27.1226 97.0829 26.9999 97.3878 26.7547C97.6928 26.5094 97.9181 26.1829 98.064 25.7753C98.2131 25.3676 98.2877 24.9185 98.2877 24.428C98.2877 23.9407 98.2131 23.4933 98.064 23.0856C97.9181 22.6746 97.6928 22.3449 97.3878 22.0963C97.0829 21.8477 96.6984 21.7234 96.2344 21.7234C95.7671 21.7234 95.3793 21.8477 95.0711 22.0963C94.7662 22.3449 94.5391 22.6746 94.39 23.0856C94.2441 23.4933 94.1712 23.9407 94.1712 24.428C94.1712 24.9185 94.2441 25.3676 94.39 25.7753C94.5391 26.1829 94.7662 26.5094 95.0711 26.7547C95.3793 26.9999 95.7671 27.1226 96.2344 27.1226ZM101.364 28.2163V20.5799H102.801V21.793H102.881C103.02 21.382 103.265 21.0589 103.617 20.8236C103.971 20.5849 104.372 20.4656 104.82 20.4656C104.912 20.4656 105.022 20.4689 105.148 20.4755C105.277 20.4822 105.378 20.4905 105.451 20.5004V21.9223C105.391 21.9057 105.285 21.8875 105.133 21.8676C104.98 21.8444 104.828 21.8328 104.675 21.8328C104.324 21.8328 104.011 21.9074 103.736 22.0565C103.464 22.2023 103.249 22.4062 103.09 22.668C102.93 22.9265 102.851 23.2215 102.851 23.553V28.2163H101.364ZM110.669 20.5799V21.7731H106.498V20.5799H110.669ZM107.617 18.7504H109.103V25.9741C109.103 26.2625 109.146 26.4796 109.232 26.6254C109.319 26.7679 109.43 26.8657 109.566 26.9187C109.705 26.9684 109.856 26.9933 110.018 26.9933C110.137 26.9933 110.242 26.985 110.331 26.9684C110.421 26.9519 110.49 26.9386 110.54 26.9287L110.808 28.1566C110.722 28.1898 110.6 28.2229 110.441 28.2561C110.281 28.2925 110.083 28.3124 109.844 28.3157C109.453 28.3224 109.088 28.2528 108.75 28.1069C108.412 27.9611 108.139 27.7357 107.93 27.4308C107.721 27.1259 107.617 26.7431 107.617 26.2824V18.7504Z" fill="white"/>
<path d="M128.5 18.7163V20.2163H124.75V28.4663H133V24.7163H134.5V29.2163C134.5 29.4152 134.421 29.606 134.28 29.7466C134.14 29.8873 133.949 29.9663 133.75 29.9663H124C123.801 29.9663 123.61 29.8873 123.47 29.7466C123.329 29.606 123.25 29.4152 123.25 29.2163V19.4663C123.25 19.2674 123.329 19.0766 123.47 18.936C123.61 18.7953 123.801 18.7163 124 18.7163H128.5ZM136.75 16.4663V22.4663H135.25V19.0261L129.405 24.8716L128.345 23.8111L134.189 17.9663H130.75V16.4663H136.75Z" fill="white"/>
</g>
<defs>
<filter id="filter0_dd_22_854" x="0" y="0.918213" width="152" height="46.5963" filterUnits="userSpaceOnUse" color-interpolation-filters="sRGB">
<feFlood flood-opacity="0" result="BackgroundImageFix"/>
<feColorMatrix in="SourceAlpha" type="matrix" values="0 0 0 0 0 0 0 0 0 0 0 0 0 0 0 0 0 0 127 0" result="hardAlpha"/>
<feMorphology radius="1" operator="dilate" in="SourceAlpha" result="effect1_dropShadow_22_854"/>
<feOffset/>
<feComposite in2="hardAlpha" operator="out"/>
<feColorMatrix type="matrix" values="0 0 0 0 0.2 0 0 0 0 0.36087 0 0 0 0 1 0 0 0 1 0"/>
<feBlend mode="normal" in2="BackgroundImageFix" result="effect1_dropShadow_22_854"/>
<feColorMatrix in="SourceAlpha" type="matrix" values="0 0 0 0 0 0 0 0 0 0 0 0 0 0 0 0 0 0 127 0" result="hardAlpha"/>
<feOffset dy="1"/>
<feGaussianBlur stdDeviation="1"/>
<feComposite in2="hardAlpha" operator="out"/>
<feColorMatrix type="matrix" values="0 0 0 0 0.0533333 0 0 0 0 0.0693333 0 0 0 0 0.106667 0 0 0 0.24 0"/>
<feBlend mode="normal" in2="effect1_dropShadow_22_854" result="effect2_dropShadow_22_854"/>
<feBlend mode="normal" in="SourceGraphic" in2="effect2_dropShadow_22_854" result="shape"/>
</filter>
<filter id="filter1_d_22_854" x="12" y="11.9182" width="28" height="28.5963" filterUnits="userSpaceOnUse" color-interpolation-filters="sRGB">
<feFlood flood-opacity="0" result="BackgroundImageFix"/>
<feColorMatrix in="SourceAlpha" type="matrix" values="0 0 0 0 0 0 0 0 0 0 0 0 0 0 0 0 0 0 127 0" result="hardAlpha"/>
<feOffset dx="2" dy="4"/>
<feGaussianBlur stdDeviation="1"/>
<feComposite in2="hardAlpha" operator="out"/>
<feColorMatrix type="matrix" values="0 0 0 0 0.1344 0 0 0 0 0.268614 0 0 0 0 0.8256 0 0 0 0.08 0"/>
<feBlend mode="normal" in2="BackgroundImageFix" result="effect1_dropShadow_22_854"/>
<feBlend mode="normal" in="SourceGraphic" in2="effect1_dropShadow_22_854" result="shape"/>
</filter>
<linearGradient id="paint0_linear_22_854" x1="76" y1="1.91821" x2="76" y2="44.5145" gradientUnits="userSpaceOnUse">
<stop stop-color="white"/>
<stop offset="1" stop-color="white" stop-opacity="0"/>
</linearGradient>
<linearGradient id="paint1_linear_22_854" x1="76" y1="1.91821" x2="76" y2="44.5145" gradientUnits="userSpaceOnUse">
<stop stop-color="white" stop-opacity="0.12"/>
<stop offset="1" stop-color="white" stop-opacity="0"/>
</linearGradient>
<linearGradient id="paint2_linear_22_854" x1="22.0947" y1="11.9182" x2="22.0947" y2="41.7984" gradientUnits="userSpaceOnUse">
<stop offset="0.38239" stop-color="white"/>
<stop offset="1" stop-color="white" stop-opacity="0"/>
</linearGradient>
</defs>
</svg>
