<svg width="205" height="47" viewBox="0 0 205 47" fill="none" xmlns="http://www.w3.org/2000/svg">
<rect width="205" height="47" rx="21" fill="#08BC08"/>
<path d="M34.6634 19.123L30.1906 33.287L40.9998 19.123H34.6634Z" fill="white"/>
<path d="M20.4846 14.1133L17.0508 18.2338H22.8882L20.4846 14.1133Z" fill="white"/>
<path d="M37.5157 14.1133L35.112 18.2338H40.9495L37.5157 14.1133Z" fill="white"/>
<path d="M23.3365 19.123H17L27.8093 33.287L23.3365 19.123Z" fill="white"/>
<path d="M30.0735 13.7852L34.2439 17.9555L36.6764 13.7852H30.0735Z" fill="white"/>
<path d="M21.3232 13.7852L23.7558 17.9555L27.9261 13.7852H21.3232Z" fill="white"/>
<path d="M24.269 19.123L28.9998 34.1032L33.7306 19.123H24.269Z" fill="white"/>
<path d="M28.9998 13.9707L24.736 18.2345H33.2636L28.9998 13.9707Z" fill="white"/>
<path d="M60.4053 29.76C62.8253 29.76 64.7253 28.76 66.0853 27.24V22.12H59.7253V24.6H63.2453V26.2C62.7053 26.7 61.5853 27.22 60.4053 27.22C57.9853 27.22 56.2253 25.36 56.2253 22.84C56.2253 20.32 57.9853 18.46 60.4053 18.46C61.8253 18.46 62.9653 19.26 63.5653 20.2L65.9253 18.92C64.9253 17.34 63.1853 15.94 60.4053 15.94C56.5053 15.94 53.3053 18.62 53.3053 22.84C53.3053 27.04 56.5053 29.76 60.4053 29.76ZM73.1998 29.74C74.6998 29.74 76.2198 29.28 77.1798 28.4L76.0598 26.76C75.4398 27.36 74.2998 27.72 73.4798 27.72C71.8398 27.72 70.8598 26.7 70.6998 25.48H77.8798V24.92C77.8798 21.76 75.9198 19.6 73.0398 19.6C70.0998 19.6 68.0398 21.86 68.0398 24.66C68.0398 27.76 70.2598 29.74 73.1998 29.74ZM75.4198 23.76H70.6598C70.7798 22.8 71.4598 21.62 73.0398 21.62C74.7198 21.62 75.3598 22.84 75.4198 23.76ZM83.3345 29.74C84.3945 29.74 85.0745 29.46 85.4545 29.12L84.9145 27.2C84.7745 27.34 84.4145 27.48 84.0345 27.48C83.4745 27.48 83.1545 27.02 83.1545 26.42V22.06H85.1145V19.84H83.1545V17.2H80.5945V19.84H78.9945V22.06H80.5945V27.1C80.5945 28.82 81.5545 29.74 83.3345 29.74ZM95.8495 29.5V22.06H97.8095V19.84H95.8495V19.32C95.8495 18.42 96.3495 17.96 97.0495 17.96C97.5095 17.96 97.8495 18.1 98.1095 18.36L99.0695 16.86C98.4495 16.2 97.4695 15.96 96.5495 15.96C94.6095 15.96 93.2895 17.26 93.2895 19.32V19.84H91.6895V22.06H93.2895V29.5H95.8495ZM108.712 29.5V19.84H106.172V26.38C105.732 26.94 104.952 27.48 103.972 27.48C102.892 27.48 102.192 27.04 102.192 25.7V19.84H99.6525V26.7C99.6525 28.58 100.652 29.74 102.772 29.74C104.352 29.74 105.512 29.02 106.172 28.28V29.5H108.712ZM114.155 29.5V16.16H111.615V29.5H114.155ZM119.593 29.5V16.16H117.053V29.5H119.593ZM130.529 29.5V23.12C130.949 22.5 132.069 22.02 132.909 22.02C133.189 22.02 133.429 22.04 133.609 22.08V19.6C132.409 19.6 131.209 20.3 130.529 21.16V19.84H127.989V29.5H130.529ZM140.116 29.74C141.616 29.74 143.136 29.28 144.096 28.4L142.976 26.76C142.356 27.36 141.216 27.72 140.396 27.72C138.756 27.72 137.776 26.7 137.616 25.48H144.796V24.92C144.796 21.76 142.836 19.6 139.956 19.6C137.016 19.6 134.956 21.86 134.956 24.66C134.956 27.76 137.176 29.74 140.116 29.74ZM142.336 23.76H137.576C137.696 22.8 138.376 21.62 139.956 21.62C141.636 21.62 142.276 22.84 142.336 23.76ZM152.531 29.74C155.011 29.74 156.811 27.88 156.811 24.66C156.811 21.44 155.011 19.6 152.531 19.6C151.351 19.6 150.291 20.12 149.551 21.06V19.84H147.011V33.18H149.551V28.26C150.331 29.26 151.391 29.74 152.531 29.74ZM151.731 27.48C150.911 27.48 149.971 26.98 149.551 26.38V22.96C149.971 22.34 150.911 21.86 151.731 21.86C153.191 21.86 154.171 23 154.171 24.66C154.171 26.34 153.191 27.48 151.731 27.48ZM163.531 29.74C166.731 29.74 168.651 27.42 168.651 24.66C168.651 21.92 166.731 19.6 163.531 19.6C160.351 19.6 158.431 21.92 158.431 24.66C158.431 27.42 160.351 29.74 163.531 29.74ZM163.531 27.48C161.951 27.48 161.071 26.18 161.071 24.66C161.071 23.16 161.951 21.86 163.531 21.86C165.111 21.86 166.011 23.16 166.011 24.66C166.011 26.18 165.111 27.48 163.531 27.48ZM173.455 29.5V23.12C173.875 22.5 174.995 22.02 175.835 22.02C176.115 22.02 176.355 22.04 176.535 22.08V19.6C175.335 19.6 174.135 20.3 173.455 21.16V19.84H170.915V29.5H173.455ZM181.742 29.74C182.802 29.74 183.482 29.46 183.862 29.12L183.322 27.2C183.182 27.34 182.822 27.48 182.442 27.48C181.882 27.48 181.562 27.02 181.562 26.42V22.06H183.522V19.84H181.562V17.2H179.002V19.84H177.402V22.06H179.002V27.1C179.002 28.82 179.962 29.74 181.742 29.74Z" fill="white"/>
</svg>
