<svg width="191" height="39" viewBox="0 0 191 39" fill="none" xmlns="http://www.w3.org/2000/svg">
<rect x="0.5" y="0.5" width="190" height="37.9182" rx="18.9591" fill="white"/>
<rect x="0.5" y="0.5" width="190" height="37.9182" rx="18.9591" stroke="white"/>
<path d="M43.9319 11.9669H49.2587C49.9949 11.9669 50.7022 12.0384 51.3807 12.1814C52.0736 12.31 52.6871 12.5388 53.2212 12.8676C53.7554 13.1964 54.1812 13.6397 54.4988 14.1972C54.8164 14.7548 54.9752 15.4625 54.9752 16.3203C54.9752 17.4212 54.6648 18.3433 54.0441 19.0868C53.4378 19.8302 52.5644 20.2806 51.424 20.4378L55.4948 27.1502H52.2035L48.6524 20.7166H46.6602V27.1502H43.9319V11.9669ZM48.7823 18.4005C49.172 18.4005 49.5618 18.3862 49.9516 18.3576C50.3413 18.3147 50.695 18.2289 51.0126 18.1003C51.3446 17.9573 51.6117 17.75 51.8138 17.4784C52.0159 17.1924 52.1169 16.7993 52.1169 16.2989C52.1169 15.8557 52.0231 15.4982 51.8354 15.2266C51.6478 14.955 51.4023 14.7548 51.0992 14.6261C50.796 14.4832 50.4568 14.3902 50.0815 14.3473C49.7206 14.3045 49.3669 14.283 49.0205 14.283H46.6602V18.4005H48.7823Z" fill="#1E1E1E"/>
<path d="M64.0061 11.9669H66.3664L72.9707 27.1502H69.8526L68.4235 23.6761H61.7758L60.39 27.1502H57.3369L64.0061 11.9669ZM67.4707 21.36L65.1105 15.1837L62.7069 21.36H67.4707Z" fill="#1E1E1E"/>
<path d="M76.1506 11.9669H81.3042C82.0404 11.9669 82.7477 12.0384 83.4262 12.1814C84.1191 12.3243 84.7254 12.5674 85.2451 12.9105C85.7648 13.2393 86.1762 13.6897 86.4793 14.2616C86.7969 14.8191 86.9557 15.5197 86.9557 16.3632C86.9557 17.3211 86.7897 18.0931 86.4577 18.6793C86.1257 19.2655 85.6781 19.723 85.1152 20.0518C84.5522 20.3663 83.8954 20.5808 83.1447 20.6952C82.4085 20.8095 81.6362 20.8667 80.8278 20.8667H78.879V27.1502H76.1506V11.9669ZM80.5246 18.5506C80.9144 18.5506 81.3186 18.5363 81.7372 18.5077C82.1559 18.4791 82.5384 18.3934 82.8849 18.2504C83.2457 18.1074 83.5345 17.893 83.751 17.607C83.982 17.3211 84.0974 16.9208 84.0974 16.4061C84.0974 15.9343 83.9964 15.5626 83.7943 15.2909C83.5922 15.005 83.3324 14.7906 83.0148 14.6476C82.6972 14.4903 82.3435 14.3902 81.9538 14.3473C81.564 14.3045 81.1887 14.283 80.8278 14.283H78.879V18.5506H80.5246Z" fill="#1E1E1E"/>
<path d="M90.7996 11.9669H93.5279V27.1502H90.7996V11.9669Z" fill="#1E1E1E"/>
<path d="M98.3674 11.9669H104.409C105.419 11.9669 106.394 12.1242 107.332 12.4387C108.27 12.7389 109.1 13.2036 109.822 13.8327C110.544 14.4617 111.121 15.2552 111.554 16.2131C111.987 17.1567 112.204 18.2718 112.204 19.5586C112.204 20.8596 111.951 21.989 111.446 22.9469C110.955 23.8905 110.313 24.6768 109.519 25.3059C108.739 25.9207 107.866 26.3853 106.899 26.6998C105.946 27.0001 105.008 27.1502 104.084 27.1502H98.3674V11.9669ZM103.131 24.7054C103.983 24.7054 104.784 24.6125 105.535 24.4266C106.3 24.2265 106.964 23.9263 107.527 23.5259C108.09 23.1113 108.53 22.5823 108.848 21.939C109.18 21.2813 109.346 20.4879 109.346 19.5586C109.346 18.6436 109.201 17.8572 108.913 17.1996C108.624 16.5419 108.22 16.0129 107.7 15.6126C107.195 15.198 106.589 14.8978 105.881 14.7119C105.188 14.5118 104.423 14.4117 103.586 14.4117H101.096V24.7054H103.131Z" fill="#1E1E1E"/>
<path d="M116.274 11.9669H126.17V14.4117H119.003V18.4005H125.758V20.8453H119.003V27.1502H116.274V11.9669Z" fill="#1E1E1E"/>
<path d="M129.362 19.6229C129.362 18.4077 129.564 17.3068 129.968 16.3203C130.372 15.3195 130.928 14.4689 131.635 13.7683C132.357 13.0678 133.209 12.5316 134.19 12.1599C135.186 11.7739 136.276 11.5809 137.46 11.5809C138.658 11.5666 139.755 11.7453 140.751 12.117C141.747 12.4745 142.606 13.0034 143.328 13.704C144.05 14.4045 144.613 15.2481 145.017 16.2345C145.421 17.221 145.623 18.3219 145.623 19.5371C145.623 20.7238 145.421 21.8032 145.017 22.7754C144.613 23.7475 144.05 24.5839 143.328 25.2845C142.606 25.985 141.747 26.5354 140.751 26.9357C139.755 27.3218 138.658 27.5219 137.46 27.5362C136.276 27.5362 135.186 27.3504 134.19 26.9786C133.209 26.5926 132.357 26.0565 131.635 25.3702C130.928 24.6697 130.372 23.8333 129.968 22.8611C129.564 21.8889 129.362 20.8095 129.362 19.6229ZM132.22 19.4513C132.22 20.2663 132.343 21.0168 132.588 21.7031C132.848 22.3893 133.209 22.9827 133.671 23.483C134.133 23.9834 134.681 24.3766 135.316 24.6625C135.966 24.9485 136.688 25.0914 137.482 25.0914C138.276 25.0914 138.997 24.9485 139.647 24.6625C140.297 24.3766 140.852 23.9834 141.314 23.483C141.776 22.9827 142.13 22.3893 142.375 21.7031C142.635 21.0168 142.765 20.2663 142.765 19.4513C142.765 18.6936 142.635 17.9859 142.375 17.3282C142.13 16.6706 141.776 16.0987 141.314 15.6126C140.852 15.1122 140.297 14.7262 139.647 14.4546C138.997 14.1686 138.276 14.0257 137.482 14.0257C136.688 14.0257 135.966 14.1686 135.316 14.4546C134.681 14.7262 134.133 15.1122 133.671 15.6126C133.209 16.0987 132.848 16.6706 132.588 17.3282C132.343 17.9859 132.22 18.6936 132.22 19.4513Z" fill="#1E1E1E"/>
<path d="M149.698 11.9669H155.025C155.761 11.9669 156.469 12.0384 157.147 12.1814C157.84 12.31 158.453 12.5388 158.988 12.8676C159.522 13.1964 159.948 13.6397 160.265 14.1972C160.583 14.7548 160.741 15.4625 160.741 16.3203C160.741 17.4212 160.431 18.3433 159.81 19.0868C159.204 19.8302 158.331 20.2806 157.19 20.4378L161.261 27.1502H157.97L154.419 20.7166H152.427V27.1502H149.698V11.9669ZM154.549 18.4005C154.938 18.4005 155.328 18.3862 155.718 18.3576C156.108 18.3147 156.461 18.2289 156.779 18.1003C157.111 17.9573 157.378 17.75 157.58 17.4784C157.782 17.1924 157.883 16.7993 157.883 16.2989C157.883 15.8557 157.789 15.4982 157.602 15.2266C157.414 14.955 157.169 14.7548 156.866 14.6261C156.562 14.4832 156.223 14.3902 155.848 14.3473C155.487 14.3045 155.133 14.283 154.787 14.283H152.427V18.4005H154.549Z" fill="#1E1E1E"/>
<path d="M167.573 14.4117H162.874V11.9669H175V14.4117H170.301V27.1502H167.573V14.4117Z" fill="#1E1E1E"/>
<path d="M25.9083 28.9182C24.5146 24.5741 23.1208 20.2301 21.7099 15.8344C21.9099 15.8058 22.047 15.7599 22.184 15.7599C24.6974 15.7599 27.205 15.7599 29.7126 15.7657C30.3067 15.7657 30.3524 15.8631 30.1696 16.4362C29.2271 19.3532 28.2903 22.2817 27.3592 25.2045C26.9651 26.431 26.5709 27.6516 26.1768 28.8781C26.0854 28.8838 25.9997 28.901 25.9083 28.9182ZM27.1764 28.5056C30.2267 24.299 33.2769 20.0983 36.3615 15.8459C36.1844 15.7943 36.1159 15.7542 36.0473 15.7542C34.5108 15.7485 32.9742 15.7313 31.4376 15.7714C31.2491 15.7771 30.9693 16.0637 30.9007 16.27C29.8611 19.3704 28.8444 22.4823 27.8219 25.5942C27.5249 26.5112 27.2335 27.4339 26.9365 28.3508C27.0165 28.4081 27.0965 28.4597 27.1764 28.5056ZM18.4712 16.2986H19.3223C19.2652 16.1726 19.2594 16.1267 19.2366 16.1038C19.0709 15.9777 18.7396 15.7943 18.7625 15.737C18.8939 15.3588 19.1566 15.5823 19.408 15.6396C19.7336 15.7084 20.0763 15.7771 20.4019 15.737C20.876 15.6797 21.0816 15.9032 21.213 16.3101C21.7442 17.9663 22.2869 19.6283 22.8295 21.2788C23.5549 23.5024 24.2861 25.7318 25.0115 27.9554C25.0572 28.0929 25.0687 28.2362 24.9773 28.454C24.823 28.2992 24.6345 28.1674 24.5032 27.9955C22.8923 25.7891 21.293 23.5712 19.6764 21.3648C19.5336 21.1642 19.2994 21.0324 19.1224 20.8834C19.1852 20.7745 19.2766 20.6198 19.3737 20.465C19.1623 20.402 18.9453 20.3332 18.6997 20.2587C18.7225 20.0524 18.7568 19.8346 18.7682 19.6226C18.7796 19.2272 18.6997 18.9291 18.1799 18.9521C18.0085 18.9578 17.8314 18.7572 17.6429 18.6426C18.2827 17.995 18.2198 17.76 17.4716 17.5365C17.4144 17.2844 17.3402 17.0322 17.3002 16.78C17.2831 16.6482 17.2831 16.4763 17.3516 16.3789C17.4087 16.3044 17.6486 16.2528 17.6886 16.2986C17.78 16.4075 17.8143 16.5737 17.8543 16.717C17.8714 16.7743 17.8486 16.8488 17.8428 16.9119C17.9 16.9119 17.9571 16.9176 18.0142 16.9233C18.0142 16.654 18.0142 16.3846 18.0142 16.121C18.0142 15.9834 17.9971 15.8402 18.0428 15.7198C18.0599 15.674 18.2884 15.6453 18.3398 15.6969C18.4255 15.7771 18.4598 15.9261 18.494 16.0522C18.5055 16.1038 18.4826 16.1783 18.4712 16.2986ZM29.8668 15.055H22.2526C22.2812 14.906 22.264 14.7971 22.3154 14.7398C22.9666 13.9891 23.6178 13.2498 24.2861 12.5162C24.3604 12.4302 24.5203 12.3787 24.6345 12.3787C25.0344 12.3729 25.4285 12.4245 25.4856 11.8342C25.4914 11.7368 25.8912 11.6795 26.0797 11.6165C26.0397 11.3643 25.9369 11.1179 25.9997 10.9287C26.074 10.711 26.3996 10.9001 26.4453 11.2268C26.4624 11.3471 26.4453 11.4789 26.4453 11.6566C27.2107 11.5821 27.4734 12.2125 27.8676 12.6251C28.4788 13.2555 29.0443 13.9318 29.6212 14.5965C29.724 14.6997 29.7697 14.8602 29.8668 15.055ZM31.6833 15.1066C33.2084 15.1066 34.7335 15.1123 36.2644 15.1009C36.6642 15.0951 36.59 14.8372 36.4472 14.5965C36.1844 14.1438 35.9217 13.6911 35.6532 13.244C35.1677 12.436 34.6821 11.6222 34.1052 10.6651C33.2141 12.1781 32.3859 13.565 31.5633 14.9576C31.609 14.9977 31.6433 15.055 31.6833 15.1066ZM30.815 15.0206C29.8554 13.8916 28.9986 12.8715 28.1361 11.8572C28.1589 11.8056 28.1818 11.754 28.2046 11.691H28.8444C29.1414 11.691 29.3699 11.668 29.4327 11.2611C29.5127 10.7797 29.9525 11.0491 30.2324 11.0204C30.3752 11.009 30.6608 11.1694 30.6722 11.2726C30.7179 11.8113 31.0321 11.6852 31.2377 11.6394C31.3577 11.3356 31.4205 10.9287 31.5405 10.9173C32.1174 10.8428 31.6661 11.4044 31.9575 11.691C32.0203 11.4789 32.026 11.3184 32.106 11.2153C32.1802 11.1179 32.3402 11.0204 32.4544 11.0319C32.5515 11.0434 32.6943 11.2096 32.7 11.307C32.7114 11.5076 32.6886 11.7368 32.5915 11.903C32.0317 12.9116 31.4605 13.8916 30.815 15.0206ZM21.3786 12.052C21.5329 12.0119 21.7613 11.9259 21.8527 11.9947C22.2069 12.2755 22.5725 12.2239 22.9552 12.1265C23.0923 12.0864 23.2351 12.0119 23.3322 11.9087C23.3779 11.8572 23.3379 11.6279 23.2922 11.6165C23.1494 11.5763 22.9666 11.5477 22.8352 11.605C22.4925 11.7483 22.2126 11.7655 21.9213 11.4732C21.847 11.3987 21.59 11.4789 21.43 11.5133C21.1502 11.5821 20.8874 11.7024 20.6075 11.7483C20.4247 11.7769 20.0763 11.6852 20.0706 11.7139C19.9849 12.0348 19.8135 12.4417 19.9335 12.6996C20.2762 13.4217 20.7332 14.0865 21.1559 14.7742C21.1901 14.8315 21.2758 14.843 21.3615 14.8946C21.4757 14.757 21.5786 14.6424 21.6871 14.522C21.63 14.522 21.5786 14.522 21.5272 14.5163C21.47 14.2584 21.4129 14.0005 21.3558 13.7484C21.6414 13.7083 21.9327 13.6739 22.2183 13.6395C22.2412 13.7025 22.264 13.7598 22.2812 13.8229C22.6524 13.3816 23.018 12.9346 23.4179 12.4532C23.0009 12.2698 22.8295 12.3271 22.7324 12.6767C22.6924 12.8085 22.4925 12.9575 22.3497 12.9747C22.2355 12.9919 22.0755 12.8486 21.9727 12.7397C21.8642 12.6366 21.807 12.499 21.7214 12.3729C21.6185 12.4933 21.5214 12.6308 21.4015 12.734C21.2758 12.8429 21.1102 13.0033 20.9788 12.9919C20.8531 12.9804 20.7046 12.7913 20.6361 12.648C20.5732 12.5048 20.5961 12.3214 20.5904 12.2526C20.9045 12.1781 21.1387 12.1036 21.3786 12.052ZM19.2709 15.0951H19.6079H19.9392C20.4361 15.0894 20.499 14.9863 20.2476 14.5392C19.9049 13.9146 19.5393 13.3128 19.1909 12.6939C18.9853 12.3328 18.654 12.3271 18.3112 12.3729C18.2256 12.3844 18.0942 12.5277 18.0828 12.6136C18.077 12.7053 18.1913 12.883 18.2655 12.8887C18.6368 12.9174 18.7625 13.1237 18.7225 13.4561C18.6825 13.7942 18.871 14.224 18.3284 14.3845C18.2084 14.4246 18.0942 14.6882 18.0942 14.8487C18.0885 14.9232 18.3398 15.0608 18.4883 15.0837C18.7454 15.1238 19.0138 15.0951 19.2709 15.0951ZM16.9518 14.3673C16.8718 14.4934 16.7347 14.6195 16.7347 14.7456C16.7347 14.8659 16.8889 14.9805 16.9689 15.1009C17.0946 14.9977 17.2202 14.9003 17.4316 14.7226C17.2088 14.5622 17.0831 14.4705 16.9518 14.3673ZM15.7465 14.6882C15.6208 14.7054 15.5123 14.8659 15.3981 14.9633C15.5066 15.0722 15.598 15.2384 15.7122 15.2556C15.8208 15.2671 15.9579 15.1238 16.192 14.9748C15.9807 14.8315 15.855 14.6768 15.7465 14.6882ZM12.0165 11.7368C11.9765 11.9202 11.948 12.1093 11.9137 12.2927C12.0622 12.3042 12.2107 12.3156 12.3535 12.3214L12.2964 11.7597C12.1936 11.754 12.1079 11.7425 12.0165 11.7368ZM15.3809 8.28683C15.181 8.24673 14.9811 8.21233 14.7869 8.17793C14.7812 8.33263 14.7697 8.48163 14.764 8.63643C14.9639 8.61923 15.1639 8.60773 15.3695 8.59623C15.3752 8.49313 15.3752 8.38993 15.3809 8.28683ZM13.3646 9.34133C13.3588 9.22673 13.1761 9.12923 13.0732 9.02613C12.9647 9.13503 12.7819 9.23813 12.7705 9.35853C12.7591 9.47313 12.9304 9.60493 13.0847 9.79973C13.216 9.59343 13.376 9.46163 13.3646 9.34133ZM19.8821 10.5562C19.6993 10.5276 19.5108 10.4989 19.328 10.476C19.3166 10.6193 19.3109 10.7625 19.2994 10.9058H19.8649C19.8649 10.7912 19.8764 10.6766 19.8821 10.5562ZM12.2735 13.6395C12.2793 13.7598 12.4563 13.9547 12.5534 13.9547C12.6677 13.9547 12.8619 13.7828 12.879 13.6739C12.8962 13.565 12.7305 13.4217 12.5877 13.2154C12.4335 13.4102 12.2621 13.5306 12.2735 13.6395ZM19.368 6.73373H18.7968C18.8025 6.86553 18.8025 7.00303 18.8082 7.13493C18.9967 7.11193 19.1852 7.08333 19.3794 7.06043C19.3737 6.94573 19.368 6.84263 19.368 6.73373ZM16.4034 6.00013C16.2949 5.99443 16.1806 6.18353 16.0664 6.28093C16.1749 6.38413 16.2663 6.53313 16.3977 6.56753C16.4891 6.59043 16.6319 6.47013 16.8261 6.37263C16.6319 6.18923 16.5234 6.01163 16.4034 6.00013ZM8.0009 11.9431C7.98376 12.0119 8.21795 12.2239 8.25223 12.2125C8.39503 12.138 8.53212 12.0176 8.61209 11.8801C8.63494 11.84 8.44644 11.6795 8.31506 11.5248C8.17797 11.6967 8.03517 11.8056 8.0009 11.9431ZM22.3383 10.476C22.3211 10.3556 22.1383 10.2697 22.0298 10.1608C21.927 10.2754 21.7499 10.3786 21.7385 10.5047C21.7328 10.6135 21.9099 10.7339 22.0698 10.9345C22.2069 10.7224 22.3611 10.5849 22.3383 10.476ZM14.6726 9.62213C14.6669 9.71953 14.8497 9.92583 14.924 9.91443C15.0553 9.89143 15.2438 9.75963 15.2667 9.64503C15.2838 9.53613 15.1239 9.39283 14.9811 9.17513C14.8269 9.38143 14.6783 9.49603 14.6726 9.62213ZM25.3828 9.16933C25.2857 9.17513 25.2 9.35273 25.1086 9.45593C25.2286 9.53613 25.3428 9.66223 25.4742 9.68513C25.5656 9.69663 25.6799 9.56483 25.9083 9.41583C25.6399 9.28973 25.5028 9.15793 25.3828 9.16933ZM29.9811 8.91723C30.021 9.04333 30.1639 9.14073 30.2667 9.24963C30.3524 9.13503 30.5066 9.01463 30.5009 8.90573C30.4952 8.78543 30.3352 8.67073 30.1639 8.45303C30.0667 8.68223 29.9582 8.81983 29.9811 8.91723ZM17.2317 7.02023C17.1574 7.00883 16.9689 7.18643 16.9803 7.26093C16.9917 7.39273 17.106 7.57613 17.2145 7.60483C17.3116 7.62773 17.4487 7.47303 17.6715 7.33543C17.4601 7.16923 17.3516 7.03743 17.2317 7.02023ZM17.8943 13.7713C17.9057 13.8802 18.0656 14.0636 18.1342 14.0521C18.2713 14.0235 18.3798 13.8916 18.5055 13.7999C18.4083 13.6911 18.317 13.5822 18.1456 13.3873C18.0199 13.5707 17.8828 13.6796 17.8943 13.7713ZM28.6216 11.1064C28.633 11.0262 28.4445 10.8428 28.3703 10.8485C28.2446 10.8657 28.0675 10.9861 28.0389 11.1007C28.0161 11.1981 28.1703 11.3356 28.3074 11.5534C28.4674 11.3414 28.6044 11.2325 28.6216 11.1064ZM24.2118 10.4703C24.2118 10.5849 24.3946 10.7683 24.5089 10.7855C24.6117 10.7912 24.8002 10.6135 24.8173 10.4989C24.8345 10.39 24.6802 10.2525 24.5489 10.0519C24.3832 10.2353 24.2061 10.3556 24.2118 10.4703ZM16.6147 19.3991C16.5062 19.3934 16.392 19.5538 16.2777 19.6512C16.392 19.7372 16.4948 19.8805 16.6205 19.9091C16.7233 19.9321 16.8547 19.8232 17.0946 19.7257C16.8661 19.5538 16.7404 19.4048 16.6147 19.3991ZM17.403 11.1351C17.2716 11.1752 17.1345 11.3013 17.0774 11.4273C17.0546 11.4846 17.2317 11.7024 17.3288 11.7082C17.4487 11.7139 17.5687 11.5706 17.7857 11.4445C17.5915 11.2841 17.4716 11.1121 17.403 11.1351ZM14.6898 11.1064C14.5584 11.1522 14.4213 11.2955 14.387 11.4331C14.3699 11.4961 14.5698 11.7139 14.6555 11.6967C14.7812 11.6852 14.8954 11.5305 15.0839 11.3758C14.9011 11.2382 14.7583 11.0777 14.6898 11.1064ZM16.5291 15.5765C16.4091 15.6339 16.2892 15.7829 16.2663 15.9089C16.2549 15.9777 16.4548 16.184 16.5119 16.1668C16.6376 16.1324 16.7347 15.9949 16.9175 15.8344C16.7347 15.7026 16.5919 15.5479 16.5291 15.5765ZM20.5275 9.85713C20.4133 9.86283 20.3105 10.0061 20.1962 10.092C20.2991 10.2009 20.3847 10.3556 20.5104 10.4015C20.5904 10.4244 20.7217 10.2697 20.9217 10.1379C20.7389 9.99463 20.6246 9.85133 20.5275 9.85713ZM18.8539 8.83693C19.0481 8.77963 19.2423 8.72813 19.4365 8.67653C19.3965 8.55613 19.3508 8.43003 19.3051 8.31543C19.1224 8.38993 18.9453 8.46443 18.7625 8.53893C18.7853 8.64213 18.8196 8.73953 18.8539 8.83693ZM16.0664 8.57333C16.2492 8.64783 16.4377 8.72813 16.6205 8.80833C16.649 8.66503 16.6833 8.52753 16.7176 8.37853C16.5176 8.36133 16.3234 8.34983 16.1292 8.33263L16.0664 8.57333ZM15.8493 17.8345C15.7808 17.8231 15.6037 18.0065 15.598 18.1096C15.5923 18.2185 15.7351 18.4306 15.8036 18.4306C15.935 18.4248 16.0664 18.2987 16.2834 18.1727C16.0835 18.0007 15.975 17.8575 15.8493 17.8345ZM16.0949 12.4532C16.1349 12.5793 16.2834 12.7455 16.3977 12.7512C16.5005 12.7569 16.7004 12.5678 16.6947 12.4704C16.689 12.35 16.5119 12.2469 16.352 12.0635C16.2263 12.2411 16.0721 12.3787 16.0949 12.4532Z" fill="#1E1E1E"/>
</svg>
