<svg width="210" height="32" viewBox="0 0 210 32" fill="none" xmlns="http://www.w3.org/2000/svg">
<rect width="210" height="32" rx="15" fill="#08BC08"/>
<g clip-path="url(#clip0_12403_320916)">
<path d="M23.5333 18.5184L22.5262 17.5099L23.5333 16.5028C23.8664 16.1727 24.1309 15.78 24.3118 15.3473C24.4927 14.9146 24.5864 14.4505 24.5874 13.9815C24.5884 13.5126 24.4968 13.048 24.3178 12.6146C24.1388 12.1811 23.876 11.7872 23.5444 11.4556C23.2128 11.124 22.8189 10.8612 22.3854 10.6822C21.952 10.5032 21.4874 10.4116 21.0185 10.4126C20.5495 10.4136 20.0854 10.5073 19.6527 10.6882C19.22 10.8691 18.8273 11.1336 18.4972 11.4667L17.4901 12.4745L16.4823 11.4674L17.4908 10.4603C18.4258 9.52529 19.694 9 21.0163 9C22.3386 9 23.6068 9.52529 24.5418 10.4603C25.4768 11.3953 26.0021 12.6635 26.0021 13.9858C26.0021 15.3082 25.4768 16.5763 24.5418 17.5113L23.534 18.5184H23.5333ZM21.5191 20.5326L20.5113 21.5397C19.5763 22.4747 18.3082 23 16.9858 23C15.6635 23 14.3953 22.4747 13.4603 21.5397C12.5253 20.6047 12 19.3365 12 18.0142C12 16.6918 12.5253 15.4237 13.4603 14.4887L14.4681 13.4816L15.4752 14.4901L14.4681 15.4972C14.1351 15.8273 13.8705 16.22 13.6896 16.6527C13.5087 17.0854 13.4151 17.5495 13.414 18.0185C13.413 18.4874 13.5046 18.952 13.6836 19.3854C13.8626 19.8189 14.1255 20.2128 14.4571 20.5444C14.7887 20.876 15.1825 21.1388 15.616 21.3178C16.0494 21.4968 16.514 21.5884 16.983 21.5874C17.4519 21.5864 17.9161 21.4927 18.3487 21.3118C18.7814 21.1309 19.1741 20.8664 19.5043 20.5333L20.5113 19.5262L21.5191 20.5333V20.5326ZM21.0149 12.978L22.0227 13.9858L16.9865 19.0213L15.9787 18.0142L21.0149 12.9787V12.978Z" fill="white"/>
</g>
<path d="M42.033 20L45.701 10.662H43.839L41.011 18.222L38.183 10.662H36.321L39.989 20H42.033ZM47.253 12.412C47.757 12.412 48.163 12.006 48.163 11.502C48.163 10.998 47.757 10.592 47.253 10.592C46.763 10.592 46.343 10.998 46.343 11.502C46.343 12.006 46.763 12.412 47.253 12.412ZM47.995 20V13.238H46.525V20H47.995ZM52.8699 20.168C53.9479 20.168 54.9419 19.832 55.6139 19.188L54.9419 18.222C54.4659 18.698 53.6819 18.964 53.0239 18.964C51.7499 18.964 50.9799 18.124 50.8679 17.102H56.0899V16.752C56.0899 14.624 54.7879 13.07 52.7579 13.07C50.7559 13.07 49.3279 14.652 49.3279 16.612C49.3279 18.754 50.8399 20.168 52.8699 20.168ZM54.6619 16.066H50.8539C50.9239 15.24 51.4979 14.274 52.7579 14.274C54.0879 14.274 54.6339 15.268 54.6619 16.066ZM64.8209 20L66.9209 13.238H65.3949L63.9669 18.152L62.3569 13.238H61.0689L59.4589 18.152L58.0309 13.238H56.5049L58.6049 20H60.1449L61.7129 15.044L63.2809 20H64.8209ZM74.7433 20C77.6553 20 79.6293 18.082 79.6293 15.338C79.6293 12.594 77.6553 10.662 74.7433 10.662H71.2713V20H74.7433ZM74.7433 18.558H72.9093V12.104H74.7433C76.8293 12.104 77.9493 13.532 77.9493 15.338C77.9493 17.102 76.7733 18.558 74.7433 18.558ZM84.1367 20.168C85.2147 20.168 86.2087 19.832 86.8807 19.188L86.2087 18.222C85.7327 18.698 84.9487 18.964 84.2907 18.964C83.0167 18.964 82.2467 18.124 82.1347 17.102H87.3567V16.752C87.3567 14.624 86.0547 13.07 84.0247 13.07C82.0227 13.07 80.5947 14.652 80.5947 16.612C80.5947 18.754 82.1067 20.168 84.1367 20.168ZM85.9287 16.066H82.1207C82.1907 15.24 82.7647 14.274 84.0247 14.274C85.3547 14.274 85.9007 15.268 85.9287 16.066ZM90.6837 20.168C91.3697 20.168 91.8037 19.986 92.0697 19.734L91.7197 18.628C91.6077 18.754 91.3417 18.866 91.0617 18.866C90.6417 18.866 90.4177 18.53 90.4177 18.068V14.526H91.7897V13.238H90.4177V11.39H88.9477V13.238H87.8277V14.526H88.9477V18.432C88.9477 19.552 89.5497 20.168 90.6837 20.168ZM98.5704 20V15.52C98.5704 13.7 97.2544 13.07 95.7564 13.07C94.6784 13.07 93.6984 13.42 92.9144 14.162L93.5164 15.184C94.1044 14.61 94.7624 14.33 95.5184 14.33C96.4564 14.33 97.1004 14.806 97.1004 15.59V16.598C96.6104 16.024 95.8264 15.73 94.9164 15.73C93.8104 15.73 92.5644 16.374 92.5644 17.928C92.5644 19.426 93.8104 20.168 94.9164 20.168C95.8124 20.168 96.5964 19.846 97.1004 19.272V20H98.5704ZM95.4904 19.16C94.6644 19.16 94.0484 18.684 94.0484 17.956C94.0484 17.214 94.6644 16.738 95.4904 16.738C96.1344 16.738 96.7644 16.976 97.1004 17.438V18.46C96.7644 18.922 96.1344 19.16 95.4904 19.16ZM101.05 12.412C101.554 12.412 101.96 12.006 101.96 11.502C101.96 10.998 101.554 10.592 101.05 10.592C100.56 10.592 100.14 10.998 100.14 11.502C100.14 12.006 100.56 12.412 101.05 12.412ZM101.792 20V13.238H100.322V20H101.792ZM105.015 20V10.662H103.545V20H105.015ZM109.89 20.168C110.968 20.168 111.962 19.832 112.634 19.188L111.962 18.222C111.486 18.698 110.702 18.964 110.044 18.964C108.77 18.964 108 18.124 107.888 17.102H113.11V16.752C113.11 14.624 111.808 13.07 109.778 13.07C107.776 13.07 106.348 14.652 106.348 16.612C106.348 18.754 107.86 20.168 109.89 20.168ZM111.682 16.066H107.874C107.944 15.24 108.518 14.274 109.778 14.274C111.108 14.274 111.654 15.268 111.682 16.066ZM120.637 20V10.662H119.167V14.176C118.621 13.462 117.837 13.07 116.997 13.07C115.247 13.07 113.987 14.442 113.987 16.626C113.987 18.852 115.261 20.168 116.997 20.168C117.865 20.168 118.649 19.748 119.167 19.076V20H120.637ZM117.417 18.866C116.255 18.866 115.513 17.928 115.513 16.626C115.513 15.31 116.255 14.372 117.417 14.372C118.117 14.372 118.831 14.778 119.167 15.282V17.97C118.831 18.474 118.117 18.866 117.417 18.866ZM127.51 20V10.662H125.872V20H127.51ZM135.333 20V15.24C135.333 13.854 134.605 13.07 133.149 13.07C132.085 13.07 131.217 13.63 130.769 14.162V13.238H129.299V20H130.769V15.282C131.105 14.82 131.749 14.372 132.505 14.372C133.331 14.372 133.863 14.722 133.863 15.772V20H135.333ZM139.398 20.168C141.218 20.168 142.212 19.258 142.212 18.068C142.212 15.38 138.124 16.276 138.124 15.072C138.124 14.596 138.614 14.246 139.384 14.246C140.224 14.246 140.98 14.596 141.386 15.058L142.002 14.022C141.386 13.476 140.518 13.07 139.37 13.07C137.662 13.07 136.71 14.022 136.71 15.128C136.71 17.718 140.798 16.766 140.798 18.096C140.798 18.628 140.35 19.006 139.468 19.006C138.586 19.006 137.648 18.544 137.172 18.054L136.5 19.118C137.2 19.804 138.25 20.168 139.398 20.168ZM145.568 20.168C146.254 20.168 146.688 19.986 146.954 19.734L146.604 18.628C146.492 18.754 146.226 18.866 145.946 18.866C145.526 18.866 145.302 18.53 145.302 18.068V14.526H146.674V13.238H145.302V11.39H143.832V13.238H142.712V14.526H143.832V18.432C143.832 19.552 144.434 20.168 145.568 20.168ZM149.324 20V15.394C149.618 14.918 150.444 14.498 151.06 14.498C151.242 14.498 151.396 14.512 151.522 14.54V13.084C150.64 13.084 149.828 13.588 149.324 14.232V13.238H147.854V20H149.324ZM158.588 20V13.238H157.118V17.984C156.768 18.446 156.124 18.866 155.382 18.866C154.556 18.866 154.024 18.544 154.024 17.494V13.238H152.554V18.026C152.554 19.412 153.268 20.168 154.724 20.168C155.788 20.168 156.628 19.65 157.118 19.104V20H158.588ZM163.423 20.168C164.739 20.168 165.537 19.608 166.013 18.964L165.047 18.068C164.669 18.586 164.151 18.866 163.493 18.866C162.261 18.866 161.449 17.928 161.449 16.612C161.449 15.296 162.261 14.372 163.493 14.372C164.151 14.372 164.669 14.638 165.047 15.17L166.013 14.274C165.537 13.63 164.739 13.07 163.423 13.07C161.365 13.07 159.923 14.568 159.923 16.612C159.923 18.67 161.365 20.168 163.423 20.168ZM169.178 20.168C169.864 20.168 170.298 19.986 170.564 19.734L170.214 18.628C170.102 18.754 169.836 18.866 169.556 18.866C169.136 18.866 168.912 18.53 168.912 18.068V14.526H170.284V13.238H168.912V11.39H167.442V13.238H166.322V14.526H167.442V18.432C167.442 19.552 168.044 20.168 169.178 20.168ZM172.193 12.412C172.697 12.412 173.103 12.006 173.103 11.502C173.103 10.998 172.697 10.592 172.193 10.592C171.703 10.592 171.283 10.998 171.283 11.502C171.283 12.006 171.703 12.412 172.193 12.412ZM172.935 20V13.238H171.465V20H172.935ZM177.74 20.168C179.91 20.168 181.226 18.558 181.226 16.612C181.226 14.68 179.91 13.07 177.74 13.07C175.598 13.07 174.268 14.68 174.268 16.612C174.268 18.558 175.598 20.168 177.74 20.168ZM177.74 18.866C176.494 18.866 175.794 17.816 175.794 16.612C175.794 15.422 176.494 14.372 177.74 14.372C179 14.372 179.7 15.422 179.7 16.612C179.7 17.816 179 18.866 177.74 18.866ZM188.593 20V15.24C188.593 13.854 187.865 13.07 186.409 13.07C185.345 13.07 184.477 13.63 184.029 14.162V13.238H182.559V20H184.029V15.282C184.365 14.82 185.009 14.372 185.765 14.372C186.591 14.372 187.123 14.722 187.123 15.772V20H188.593ZM192.658 20.168C194.478 20.168 195.472 19.258 195.472 18.068C195.472 15.38 191.384 16.276 191.384 15.072C191.384 14.596 191.874 14.246 192.644 14.246C193.484 14.246 194.24 14.596 194.646 15.058L195.262 14.022C194.646 13.476 193.778 13.07 192.63 13.07C190.922 13.07 189.97 14.022 189.97 15.128C189.97 17.718 194.058 16.766 194.058 18.096C194.058 18.628 193.61 19.006 192.728 19.006C191.846 19.006 190.908 18.544 190.432 18.054L189.76 19.118C190.46 19.804 191.51 20.168 192.658 20.168Z" fill="white"/>
<defs>
<clipPath id="clip0_12403_320916">
<rect width="18" height="18" fill="white" transform="translate(10 7)"/>
</clipPath>
</defs>
</svg>
