<svg width="184" height="44" viewBox="0 0 184 44" fill="none" xmlns="http://www.w3.org/2000/svg">
<g filter="url(#filter0_dd_22_944)">
<path d="M2 11C2 5.47715 6.47715 1 12 1H172C177.523 1 182 5.47715 182 11V31C182 36.5228 177.523 41 172 41H12C6.47716 41 2 36.5228 2 31V11Z" fill="#0E121B"/>
<path d="M2 11C2 5.47715 6.47715 1 12 1H172C177.523 1 182 5.47715 182 11V31C182 36.5228 177.523 41 172 41H12C6.47716 41 2 36.5228 2 31V11Z" fill="url(#paint0_linear_22_944)" fill-opacity="0.16"/>
<path d="M2.5 11C2.5 5.7533 6.7533 1.5 12 1.5H172C177.247 1.5 181.5 5.7533 181.5 11V31C181.5 36.2467 177.247 40.5 172 40.5H12C6.7533 40.5 2.5 36.2467 2.5 31V11Z" stroke="url(#paint1_linear_22_944)"/>
<path fill-rule="evenodd" clip-rule="evenodd" d="M22.0072 12.25C17.1647 12.25 13.25 16.2604 13.25 21.2218C13.25 25.1877 15.7583 28.5448 19.238 29.733C19.673 29.8223 19.8324 29.5399 19.8324 29.3024C19.8324 29.0944 19.818 28.3815 19.818 27.6386C17.382 28.1735 16.8747 26.5691 16.8747 26.5691C16.4832 25.5293 15.9031 25.2621 15.9031 25.2621C15.1058 24.7125 15.9612 24.7125 15.9612 24.7125C16.8456 24.7719 17.3097 25.6334 17.3097 25.6334C18.0925 26.9999 19.3539 26.6138 19.8614 26.3761C19.9338 25.7968 20.166 25.3957 20.4124 25.173C18.4695 24.965 16.4253 24.1926 16.4253 20.7464C16.4253 19.766 16.773 18.964 17.3241 18.3402C17.2371 18.1174 16.9326 17.1963 17.4112 15.9634C17.4112 15.9634 18.1506 15.7257 19.8178 16.8844C20.5316 16.688 21.2678 16.5881 22.0072 16.5872C22.7467 16.5872 23.5004 16.6913 24.1965 16.8844C25.8639 15.7257 26.6033 15.9634 26.6033 15.9634C27.0819 17.1963 26.7772 18.1174 26.6902 18.3402C27.2558 18.964 27.5892 19.766 27.5892 20.7464C27.5892 24.1926 25.545 24.95 23.5875 25.173C23.9066 25.4552 24.1819 25.9898 24.1819 26.8366C24.1819 28.0397 24.1676 29.0053 24.1676 29.3022C24.1676 29.5399 24.3271 29.8223 24.762 29.7332C28.2417 28.5446 30.75 25.1877 30.75 21.2218C30.7643 16.2604 26.8352 12.25 22.0072 12.25Z" fill="white"/>
<path d="M42.0085 15.8182L44.8423 24.1108H44.9567L47.7905 15.8182H49.451L45.7869 26H44.0121L40.348 15.8182H42.0085ZM50.718 26V18.3636H52.2045V26H50.718ZM51.4687 17.1854C51.2102 17.1854 50.9881 17.0992 50.8025 16.9268C50.6202 16.7512 50.5291 16.5424 50.5291 16.3004C50.5291 16.0552 50.6202 15.8464 50.8025 15.674C50.9881 15.4983 51.2102 15.4105 51.4687 15.4105C51.7273 15.4105 51.9477 15.4983 52.13 15.674C52.3156 15.8464 52.4084 16.0552 52.4084 16.3004C52.4084 16.5424 52.3156 16.7512 52.13 16.9268C51.9477 17.0992 51.7273 17.1854 51.4687 17.1854ZM57.4115 26.1541C56.6592 26.1541 56.0112 25.9934 55.4677 25.6719C54.9274 25.3471 54.5098 24.8913 54.2148 24.3047C53.9231 23.7147 53.7773 23.0237 53.7773 22.2315C53.7773 21.4493 53.9231 20.7599 54.2148 20.1634C54.5098 19.5668 54.9208 19.1011 55.4478 18.7663C55.9781 18.4316 56.5979 18.2642 57.3071 18.2642C57.738 18.2642 58.1556 18.3355 58.56 18.478C58.9643 18.6205 59.3273 18.8442 59.6488 19.1491C59.9703 19.4541 60.2238 19.8501 60.4094 20.3374C60.595 20.8213 60.6878 21.4096 60.6878 22.1023V22.6293H54.6175V21.5156H59.2311C59.2311 21.1245 59.1516 20.7782 58.9925 20.4766C58.8334 20.1716 58.6097 19.9313 58.3213 19.7557C58.0363 19.58 57.7016 19.4922 57.3171 19.4922C56.8995 19.4922 56.5349 19.5949 56.2233 19.8004C55.9151 20.0026 55.6765 20.2678 55.5074 20.5959C55.3417 20.9207 55.2588 21.2737 55.2588 21.6548V22.5249C55.2588 23.0353 55.3483 23.4695 55.5273 23.8274C55.7096 24.1854 55.9632 24.4588 56.288 24.6477C56.6128 24.8333 56.9923 24.9261 57.4265 24.9261C57.7082 24.9261 57.965 24.8864 58.1971 24.8068C58.4291 24.724 58.6296 24.6013 58.7986 24.4389C58.9677 24.2765 59.0969 24.076 59.1864 23.8374L60.5934 24.0909C60.4807 24.5052 60.2785 24.8681 59.9868 25.1797C59.6985 25.4879 59.3356 25.7282 58.8981 25.9006C58.4639 26.0696 57.9684 26.1541 57.4115 26.1541ZM63.895 26L61.6479 18.3636H63.1841L64.6805 23.9716H64.7551L66.2565 18.3636H67.7927L69.2842 23.9467H69.3588L70.8453 18.3636H72.3815L70.1393 26H68.623L67.0719 20.4865H66.9575L65.4064 26H63.895ZM80.5459 26.1541C79.83 26.1541 79.2052 25.9901 78.6716 25.6619C78.138 25.3338 77.7237 24.8748 77.4287 24.2848C77.1337 23.6948 76.9863 23.0054 76.9863 22.2166C76.9863 21.4245 77.1337 20.7318 77.4287 20.1385C77.7237 19.5452 78.138 19.0845 78.6716 18.7564C79.2052 18.4283 79.83 18.2642 80.5459 18.2642C81.2618 18.2642 81.8866 18.4283 82.4202 18.7564C82.9538 19.0845 83.3681 19.5452 83.6631 20.1385C83.9581 20.7318 84.1056 21.4245 84.1056 22.2166C84.1056 23.0054 83.9581 23.6948 83.6631 24.2848C83.3681 24.8748 82.9538 25.3338 82.4202 25.6619C81.8866 25.9901 81.2618 26.1541 80.5459 26.1541ZM80.5509 24.9062C81.0149 24.9062 81.3994 24.7836 81.7043 24.5384C82.0092 24.2931 82.2346 23.9666 82.3804 23.5589C82.5296 23.1513 82.6041 22.7022 82.6041 22.2116C82.6041 21.7244 82.5296 21.277 82.3804 20.8693C82.2346 20.4583 82.0092 20.1286 81.7043 19.88C81.3994 19.6314 81.0149 19.5071 80.5509 19.5071C80.0836 19.5071 79.6958 19.6314 79.3875 19.88C79.0826 20.1286 78.8556 20.4583 78.7064 20.8693C78.5606 21.277 78.4877 21.7244 78.4877 22.2116C78.4877 22.7022 78.5606 23.1513 78.7064 23.5589C78.8556 23.9666 79.0826 24.2931 79.3875 24.5384C79.6958 24.7836 80.0836 24.9062 80.5509 24.9062ZM87.1673 21.4659V26H85.6808V18.3636H87.1077V19.6065H87.2021C87.3778 19.2022 87.6529 18.8774 88.0274 18.6321C88.4053 18.3868 88.8809 18.2642 89.4543 18.2642C89.9746 18.2642 90.4304 18.3736 90.8215 18.5923C91.2126 18.8078 91.5158 19.1293 91.7313 19.5568C91.9467 19.9844 92.0544 20.513 92.0544 21.1428V26H90.5679V21.3217C90.5679 20.7682 90.4237 20.3357 90.1354 20.0241C89.847 19.7093 89.451 19.5518 88.9472 19.5518C88.6025 19.5518 88.2959 19.6264 88.0274 19.7756C87.7623 19.9247 87.5518 20.1435 87.396 20.4318C87.2436 20.7169 87.1673 21.0616 87.1673 21.4659ZM104.595 19.0348C104.499 18.7332 104.37 18.4631 104.207 18.2244C104.048 17.9825 103.858 17.777 103.636 17.608C103.413 17.4356 103.16 17.3047 102.875 17.2152C102.593 17.1257 102.283 17.081 101.945 17.081C101.372 17.081 100.855 17.2285 100.394 17.5234C99.9333 17.8184 99.5688 18.2509 99.3003 18.821C99.0351 19.3878 98.9026 20.0821 98.9026 20.9041C98.9026 21.7294 99.0368 22.4271 99.3053 22.9972C99.5737 23.5672 99.9416 23.9998 100.409 24.2947C100.876 24.5897 101.408 24.7372 102.005 24.7372C102.558 24.7372 103.041 24.6245 103.452 24.3991C103.866 24.1738 104.186 23.8556 104.411 23.4446C104.64 23.0303 104.754 22.5431 104.754 21.983L105.152 22.0575H102.239V20.7898H106.241V21.9482C106.241 22.8033 106.058 23.5457 105.694 24.1754C105.332 24.8018 104.832 25.2857 104.192 25.6271C103.556 25.9685 102.827 26.1392 102.005 26.1392C101.083 26.1392 100.275 25.9271 99.5787 25.5028C98.886 25.0786 98.3458 24.477 97.958 23.6982C97.5702 22.916 97.3763 21.9879 97.3763 20.9141C97.3763 20.102 97.489 19.3729 97.7144 18.7266C97.9397 18.0803 98.2563 17.5317 98.6639 17.081C99.0749 16.6269 99.5572 16.2805 100.111 16.0419C100.667 15.8 101.276 15.679 101.935 15.679C102.485 15.679 102.998 15.7602 103.471 15.9226C103.949 16.085 104.373 16.3153 104.744 16.6136C105.119 16.9119 105.429 17.2666 105.674 17.6776C105.919 18.0852 106.085 18.5376 106.171 19.0348H104.595ZM108.466 26V18.3636H109.952V26H108.466ZM109.217 17.1854C108.958 17.1854 108.736 17.0992 108.55 16.9268C108.368 16.7512 108.277 16.5424 108.277 16.3004C108.277 16.0552 108.368 15.8464 108.55 15.674C108.736 15.4983 108.958 15.4105 109.217 15.4105C109.475 15.4105 109.696 15.4983 109.878 15.674C110.063 15.8464 110.156 16.0552 110.156 16.3004C110.156 16.5424 110.063 16.7512 109.878 16.9268C109.696 17.0992 109.475 17.1854 109.217 17.1854ZM115.433 18.3636V19.5568H111.262V18.3636H115.433ZM112.38 16.5341H113.867V23.7578C113.867 24.0462 113.91 24.2633 113.996 24.4091C114.082 24.5516 114.193 24.6494 114.329 24.7024C114.468 24.7521 114.619 24.777 114.782 24.777C114.901 24.777 115.005 24.7687 115.095 24.7521C115.184 24.7356 115.254 24.7223 115.304 24.7124L115.572 25.9403C115.486 25.9735 115.363 26.0066 115.204 26.0398C115.045 26.0762 114.846 26.0961 114.608 26.0994C114.217 26.1061 113.852 26.0365 113.514 25.8906C113.176 25.7448 112.902 25.5194 112.694 25.2145C112.485 24.9096 112.38 24.5268 112.38 24.0661V16.5341ZM117.277 26V15.8182H118.813V20.2429H123.889V15.8182H125.43V26H123.889V21.5604H118.813V26H117.277ZM132.301 22.8331V18.3636H133.793V26H132.331V24.6776H132.252C132.076 25.0852 131.794 25.425 131.406 25.6967C131.022 25.9652 130.543 26.0994 129.97 26.0994C129.479 26.0994 129.045 25.9917 128.667 25.7763C128.293 25.5575 127.998 25.2344 127.782 24.8068C127.57 24.3793 127.464 23.8506 127.464 23.2209V18.3636H128.95V23.0419C128.95 23.5623 129.095 23.9766 129.383 24.2848C129.671 24.593 130.046 24.7472 130.507 24.7472C130.785 24.7472 131.062 24.6776 131.337 24.5384C131.615 24.3991 131.846 24.1887 132.028 23.907C132.213 23.6252 132.305 23.2673 132.301 22.8331ZM135.825 26V15.8182H137.312V19.6016H137.401C137.488 19.4425 137.612 19.2585 137.774 19.0497C137.937 18.8409 138.162 18.6586 138.45 18.5028C138.739 18.3438 139.12 18.2642 139.594 18.2642C140.21 18.2642 140.761 18.42 141.244 18.7315C141.728 19.0431 142.108 19.4922 142.383 20.0788C142.661 20.6655 142.801 21.3714 142.801 22.1967C142.801 23.022 142.663 23.7296 142.388 24.3196C142.113 24.9062 141.735 25.3587 141.254 25.6768C140.774 25.9917 140.225 26.1491 139.609 26.1491C139.145 26.1491 138.765 26.0713 138.47 25.9155C138.179 25.7597 137.95 25.5774 137.784 25.3686C137.619 25.1598 137.491 24.9742 137.401 24.8118H137.277V26H135.825ZM137.282 22.1818C137.282 22.7187 137.36 23.1894 137.516 23.5938C137.672 23.9981 137.897 24.3146 138.192 24.5433C138.487 24.7687 138.848 24.8814 139.276 24.8814C139.72 24.8814 140.091 24.7637 140.389 24.5284C140.688 24.2898 140.913 23.9666 141.065 23.5589C141.221 23.1513 141.299 22.6922 141.299 22.1818C141.299 21.678 141.223 21.2256 141.07 20.8246C140.921 20.4235 140.696 20.107 140.394 19.875C140.096 19.643 139.723 19.527 139.276 19.527C138.845 19.527 138.48 19.638 138.182 19.8601C137.887 20.0821 137.663 20.392 137.511 20.7898C137.358 21.1875 137.282 21.6515 137.282 22.1818Z" fill="white"/>
<path d="M160.5 16.5V18H156.75V26.25H165V22.5H166.5V27C166.5 27.1989 166.421 27.3897 166.28 27.5303C166.14 27.671 165.949 27.75 165.75 27.75H156C155.801 27.75 155.61 27.671 155.47 27.5303C155.329 27.3897 155.25 27.1989 155.25 27V17.25C155.25 17.0511 155.329 16.8603 155.47 16.7197C155.61 16.579 155.801 16.5 156 16.5H160.5ZM168.75 14.25V20.25H167.25V16.8098L161.405 22.6552L160.345 21.5948L166.189 15.75H162.75V14.25H168.75Z" fill="white"/>
</g>
<defs>
<filter id="filter0_dd_22_944" x="0" y="0" width="184" height="44" filterUnits="userSpaceOnUse" color-interpolation-filters="sRGB">
<feFlood flood-opacity="0" result="BackgroundImageFix"/>
<feColorMatrix in="SourceAlpha" type="matrix" values="0 0 0 0 0 0 0 0 0 0 0 0 0 0 0 0 0 0 127 0" result="hardAlpha"/>
<feMorphology radius="1" operator="dilate" in="SourceAlpha" result="effect1_dropShadow_22_944"/>
<feOffset/>
<feComposite in2="hardAlpha" operator="out"/>
<feColorMatrix type="matrix" values="0 0 0 0 0.141176 0 0 0 0 0.14902 0 0 0 0 0.156863 0 0 0 1 0"/>
<feBlend mode="normal" in2="BackgroundImageFix" result="effect1_dropShadow_22_944"/>
<feColorMatrix in="SourceAlpha" type="matrix" values="0 0 0 0 0 0 0 0 0 0 0 0 0 0 0 0 0 0 127 0" result="hardAlpha"/>
<feOffset dy="1"/>
<feGaussianBlur stdDeviation="1"/>
<feComposite in2="hardAlpha" operator="out"/>
<feColorMatrix type="matrix" values="0 0 0 0 0.105882 0 0 0 0 0.109804 0 0 0 0 0.113725 0 0 0 0.48 0"/>
<feBlend mode="normal" in2="effect1_dropShadow_22_944" result="effect2_dropShadow_22_944"/>
<feBlend mode="normal" in="SourceGraphic" in2="effect2_dropShadow_22_944" result="shape"/>
</filter>
<linearGradient id="paint0_linear_22_944" x1="92" y1="1" x2="92" y2="41" gradientUnits="userSpaceOnUse">
<stop stop-color="white"/>
<stop offset="1" stop-color="white" stop-opacity="0"/>
</linearGradient>
<linearGradient id="paint1_linear_22_944" x1="92" y1="1" x2="92" y2="41" gradientUnits="userSpaceOnUse">
<stop stop-color="white" stop-opacity="0.12"/>
<stop offset="1" stop-color="white" stop-opacity="0"/>
</linearGradient>
</defs>
</svg>
