<svg width="225" height="47" viewBox="0 0 225 47" fill="none" xmlns="http://www.w3.org/2000/svg">
<rect x="0.5" y="0.5" width="224" height="46" rx="20.5" fill="white"/>
<rect x="0.5" y="0.5" width="224" height="46" rx="20.5" fill="url(#paint0_linear_12440_320904)" fill-opacity="0.2"/>
<g clip-path="url(#clip0_12440_320904)">
<path d="M30.9999 11.834C24.5541 11.834 19.3333 17.0548 19.3333 23.5007C19.3319 25.9498 20.1019 28.3372 21.5338 30.3241C22.9658 32.311 24.9871 33.7966 27.3109 34.57C27.8943 34.6715 28.1124 34.3215 28.1124 34.0147C28.1124 33.7382 28.0973 32.82 28.0973 31.8423C25.1666 32.3825 24.4083 31.1283 24.1749 30.4715C24.0431 30.1355 23.4749 29.1007 22.9791 28.823C22.5708 28.6048 21.9874 28.0647 22.9639 28.0507C23.8833 28.0355 24.5389 28.8965 24.7583 29.2465C25.8083 31.0105 27.4859 30.5147 28.1556 30.209C28.2583 29.4507 28.5639 28.9408 28.8999 28.6492C26.3041 28.3575 23.5916 27.3507 23.5916 22.8882C23.5916 21.6188 24.0431 20.57 24.7874 19.7522C24.6708 19.4605 24.2624 18.2647 24.9041 16.6605C24.9041 16.6605 25.8806 16.3548 28.1124 17.8575C29.0622 17.5939 30.0434 17.4612 31.0291 17.4632C32.0208 17.4632 33.0124 17.5938 33.9458 17.8563C36.1764 16.3397 37.1541 16.6617 37.1541 16.6617C37.7958 18.2658 37.3874 19.4617 37.2708 19.7533C38.0139 20.57 38.4666 21.6048 38.4666 22.8882C38.4666 27.3658 35.7401 28.3575 33.1443 28.6492C33.5666 29.0132 33.9318 29.7132 33.9318 30.8075C33.9318 32.3673 33.9166 33.6215 33.9166 34.0158C33.9166 34.3215 34.1359 34.6855 34.7193 34.5688C37.0351 33.7869 39.0475 32.2985 40.4731 30.313C41.8988 28.3275 42.6659 25.945 42.6666 23.5007C42.6666 17.0548 37.4458 11.834 30.9999 11.834Z" fill="black"/>
</g>
<path d="M65.0823 29.5H61.5223L56.3623 16.16H59.6023L63.3023 26.42L66.9823 16.16H70.2223L65.0823 29.5ZM73.0342 18.8C72.6209 18.8 72.2609 18.6533 71.9542 18.36C71.6609 18.0533 71.5142 17.6933 71.5142 17.28C71.5142 16.8667 71.6609 16.5133 71.9542 16.22C72.2609 15.9267 72.6209 15.78 73.0342 15.78C73.4609 15.78 73.8209 15.9267 74.1142 16.22C74.4075 16.5133 74.5542 16.8667 74.5542 17.28C74.5542 17.6933 74.4075 18.0533 74.1142 18.36C73.8209 18.6533 73.4609 18.8 73.0342 18.8ZM74.3142 29.5H71.7742V19.84H74.3142V29.5ZM81.7528 29.74C80.2595 29.74 79.0261 29.2733 78.0528 28.34C77.0795 27.4067 76.5928 26.18 76.5928 24.66C76.5928 23.2333 77.0595 22.0333 77.9928 21.06C78.9395 20.0867 80.1395 19.6 81.5928 19.6C83.0328 19.6 84.1995 20.0933 85.0928 21.08C85.9861 22.0533 86.4328 23.3333 86.4328 24.92V25.48H79.2528C79.3328 26.12 79.6195 26.6533 80.1128 27.08C80.6061 27.5067 81.2461 27.72 82.0328 27.72C82.4595 27.72 82.9195 27.6333 83.4128 27.46C83.9195 27.2867 84.3195 27.0533 84.6128 26.76L85.7328 28.4C84.7595 29.2933 83.4328 29.74 81.7528 29.74ZM83.9728 23.76C83.9328 23.2133 83.7128 22.72 83.3128 22.28C82.9261 21.84 82.3528 21.62 81.5928 21.62C80.8728 21.62 80.3128 21.84 79.9128 22.28C79.5128 22.7067 79.2795 23.2 79.2128 23.76H83.9728ZM99.8275 29.5H97.1275L95.0875 22.92L93.0475 29.5H90.3275L87.3875 19.84H90.0275L91.8275 26.34L93.9475 19.84H96.2075L98.3275 26.34L100.127 19.84H102.767L99.8275 29.5ZM118.096 28.28C117.162 29.2533 115.922 29.74 114.376 29.74C112.829 29.74 111.589 29.2533 110.656 28.28C109.736 27.2933 109.276 26.0867 109.276 24.66C109.276 23.2333 109.736 22.0333 110.656 21.06C111.589 20.0867 112.829 19.6 114.376 19.6C115.922 19.6 117.162 20.0867 118.096 21.06C119.029 22.0333 119.496 23.2333 119.496 24.66C119.496 26.0867 119.029 27.2933 118.096 28.28ZM112.576 26.68C113.016 27.2133 113.616 27.48 114.376 27.48C115.136 27.48 115.736 27.2133 116.176 26.68C116.629 26.1333 116.856 25.46 116.856 24.66C116.856 23.8733 116.629 23.2133 116.176 22.68C115.736 22.1333 115.136 21.86 114.376 21.86C113.616 21.86 113.016 22.1333 112.576 22.68C112.136 23.2133 111.916 23.8733 111.916 24.66C111.916 25.46 112.136 26.1333 112.576 26.68ZM130.82 29.5H128.28V23.66C128.28 22.46 127.687 21.86 126.5 21.86C125.58 21.86 124.847 22.24 124.3 23V29.5H121.76V19.84H124.3V21.1C125.14 20.1 126.267 19.6 127.68 19.6C128.72 19.6 129.5 19.8733 130.02 20.42C130.553 20.9667 130.82 21.72 130.82 22.68V29.5ZM145.739 29.76C143.739 29.76 142.053 29.12 140.679 27.84C139.319 26.56 138.639 24.8933 138.639 22.84C138.639 20.7733 139.319 19.1067 140.679 17.84C142.053 16.5733 143.739 15.94 145.739 15.94C148.166 15.94 150.006 16.9333 151.259 18.92L148.899 20.2C148.579 19.6933 148.139 19.28 147.579 18.96C147.033 18.6267 146.419 18.46 145.739 18.46C144.526 18.46 143.526 18.8733 142.739 19.7C141.953 20.5267 141.559 21.5733 141.559 22.84C141.559 24.1067 141.953 25.1533 142.739 25.98C143.526 26.8067 144.526 27.22 145.739 27.22C146.299 27.22 146.839 27.12 147.359 26.92C147.879 26.72 148.286 26.48 148.579 26.2V24.6H145.059V22.12H151.419V27.24C149.913 28.92 148.019 29.76 145.739 29.76ZM155.254 18.8C154.841 18.8 154.481 18.6533 154.174 18.36C153.881 18.0533 153.734 17.6933 153.734 17.28C153.734 16.8667 153.881 16.5133 154.174 16.22C154.481 15.9267 154.841 15.78 155.254 15.78C155.681 15.78 156.041 15.9267 156.334 16.22C156.627 16.5133 156.774 16.8667 156.774 17.28C156.774 17.6933 156.627 18.0533 156.334 18.36C156.041 18.6533 155.681 18.8 155.254 18.8ZM156.534 29.5H153.994V19.84H156.534V29.5ZM162.673 29.74C161.779 29.74 161.099 29.5133 160.633 29.06C160.166 28.6067 159.933 27.9533 159.933 27.1V22.06H158.333V19.84H159.933V17.2H162.493V19.84H164.453V22.06H162.493V26.42C162.493 26.7267 162.573 26.98 162.733 27.18C162.893 27.38 163.106 27.48 163.373 27.48C163.773 27.48 164.066 27.3867 164.253 27.2L164.793 29.12C164.326 29.5333 163.619 29.74 162.673 29.74ZM178.63 29.5H175.77V23.9H169.47V29.5H166.63V16.16H169.47V21.4H175.77V16.16H178.63V29.5ZM190.639 29.5H188.099V28.28C187.233 29.2533 186.099 29.74 184.699 29.74C183.659 29.74 182.879 29.4733 182.359 28.94C181.839 28.4067 181.579 27.66 181.579 26.7V19.84H184.119V25.7C184.119 26.8867 184.713 27.48 185.899 27.48C186.793 27.48 187.526 27.1133 188.099 26.38V19.84H190.639V29.5ZM196.081 26.4C196.295 26.7067 196.608 26.9667 197.021 27.18C197.435 27.38 197.848 27.48 198.261 27.48C198.995 27.48 199.588 27.2267 200.041 26.72C200.495 26.2 200.721 25.52 200.721 24.68C200.721 23.84 200.495 23.16 200.041 22.64C199.588 22.12 198.995 21.86 198.261 21.86C197.848 21.86 197.435 21.9667 197.021 22.18C196.608 22.3933 196.295 22.66 196.081 22.98V26.4ZM196.081 29.5H193.541V16.16H196.081V21.08C196.841 20.0933 197.835 19.6 199.061 19.6C200.315 19.6 201.341 20.06 202.141 20.98C202.941 21.9 203.341 23.1333 203.341 24.68C203.341 26.2533 202.941 27.4933 202.141 28.4C201.341 29.2933 200.315 29.74 199.061 29.74C197.861 29.74 196.868 29.2467 196.081 28.26V29.5Z" fill="black"/>
<rect x="0.5" y="0.5" width="224" height="46" rx="20.5" stroke="#E7E8EC"/>
<defs>
<linearGradient id="paint0_linear_12440_320904" x1="112.5" y1="0" x2="112.5" y2="47" gradientUnits="userSpaceOnUse">
<stop stop-opacity="0"/>
<stop offset="1" stop-opacity="0.3"/>
</linearGradient>
<clipPath id="clip0_12440_320904">
<rect width="28" height="28" fill="white" transform="translate(17 9.5)"/>
</clipPath>
</defs>
</svg>
