<svg width="261" height="47" viewBox="0 0 261 47" fill="none" xmlns="http://www.w3.org/2000/svg">
<rect width="261" height="47" rx="21" fill="#4F95E5"/>
<g clip-path="url(#clip0_12415_320881)">
<path d="M30.983 22.5777H33.102C33.1512 22.5777 33.1983 22.5582 33.2332 22.5235C33.268 22.4889 33.2878 22.4418 33.288 22.3927V20.5057C33.288 20.4563 33.2684 20.409 33.2335 20.3742C33.1987 20.3393 33.1513 20.3197 33.102 20.3197H30.983C30.934 20.3197 30.8869 20.3392 30.8522 20.3739C30.8175 20.4086 30.798 20.4556 30.798 20.5047V22.3927C30.798 22.4947 30.881 22.5777 30.983 22.5777V22.5777ZM28.029 17.1477H30.147C30.1963 17.1477 30.2437 17.1281 30.2785 17.0932C30.3134 17.0583 30.333 17.011 30.333 16.9617V15.0737C30.3328 15.0245 30.313 14.9775 30.2782 14.9428C30.2433 14.9081 30.1962 14.8887 30.147 14.8887H28.029C27.98 14.8887 27.9329 14.9082 27.8982 14.9429C27.8635 14.9776 27.844 15.0246 27.844 15.0737V16.9617C27.844 17.0637 27.926 17.1467 28.029 17.1467V17.1477ZM28.029 19.8627H30.147C30.1963 19.8624 30.2434 19.8427 30.2782 19.8079C30.3131 19.7731 30.3328 19.7259 30.333 19.6767V17.7897C30.3328 17.7405 30.313 17.6935 30.2782 17.6588C30.2433 17.6241 30.1962 17.6047 30.147 17.6047H28.029C27.98 17.6047 27.9329 17.6242 27.8982 17.6589C27.8635 17.6936 27.844 17.7406 27.844 17.7897V19.6767C27.844 19.7787 27.926 19.8617 28.029 19.8627ZM25.099 19.8627H27.219C27.268 19.8621 27.3148 19.8423 27.3492 19.8075C27.3837 19.7727 27.403 19.7257 27.403 19.6767V17.7897C27.403 17.7406 27.3835 17.6936 27.3488 17.6589C27.3141 17.6242 27.2671 17.6047 27.218 17.6047H25.1C25.051 17.6047 25.0039 17.6242 24.9692 17.6589C24.9345 17.6936 24.915 17.7406 24.915 17.7897V19.6767C24.915 19.7787 24.998 19.8617 25.1 19.8627H25.099ZM22.136 19.8627H24.255C24.3042 19.8624 24.3512 19.8427 24.3859 19.8078C24.4206 19.773 24.44 19.7258 24.44 19.6767V17.7897C24.44 17.7406 24.4205 17.6936 24.3858 17.6589C24.3511 17.6242 24.3041 17.6047 24.255 17.6047H22.136C22.0869 17.6047 22.0397 17.6241 22.0048 17.6588C21.97 17.6935 21.9503 17.7405 21.95 17.7897V19.6767C21.95 19.7787 22.034 19.8617 22.136 19.8627V19.8627ZM28.029 22.5777H30.147C30.1962 22.5777 30.2433 22.5582 30.2782 22.5235C30.313 22.4889 30.3328 22.4418 30.333 22.3927V20.5057C30.333 20.4563 30.3134 20.409 30.2785 20.3742C30.2437 20.3393 30.1963 20.3197 30.147 20.3197H28.029C27.98 20.3197 27.9329 20.3392 27.8982 20.3739C27.8635 20.4086 27.844 20.4556 27.844 20.5047V22.3927C27.844 22.4947 27.926 22.5777 28.029 22.5777V22.5777ZM25.099 22.5777H27.219C27.2679 22.5774 27.3147 22.5578 27.3492 22.5231C27.3837 22.4885 27.403 22.4416 27.403 22.3927V20.5057C27.4031 20.4814 27.3985 20.4573 27.3893 20.4348C27.3801 20.4123 27.3666 20.3918 27.3495 20.3746C27.3325 20.3573 27.3121 20.3436 27.2897 20.3341C27.2673 20.3247 27.2433 20.3198 27.219 20.3197H25.099C25.0501 20.3199 25.0033 20.3395 24.9688 20.3742C24.9344 20.4089 24.915 20.4558 24.915 20.5047V22.3927C24.915 22.4947 24.998 22.5777 25.1 22.5777H25.099ZM22.136 22.5777H24.255C24.3041 22.5777 24.3511 22.5582 24.3858 22.5235C24.4205 22.4888 24.44 22.4417 24.44 22.3927V20.5057C24.4401 20.4814 24.4355 20.4573 24.4263 20.4348C24.4171 20.4123 24.4036 20.3918 24.3865 20.3746C24.3695 20.3573 24.3491 20.3436 24.3267 20.3341C24.3043 20.3247 24.2803 20.3198 24.256 20.3197H22.136C22.0867 20.3197 22.0394 20.3393 22.0045 20.3742C21.9696 20.409 21.95 20.4563 21.95 20.5057V22.3927C21.95 22.4947 22.034 22.5777 22.136 22.5777V22.5777ZM19.216 22.5777H21.336C21.3849 22.5774 21.4317 22.5578 21.4662 22.5231C21.5007 22.4885 21.52 22.4416 21.52 22.3927V20.5057C21.5201 20.4814 21.5155 20.4573 21.5063 20.4348C21.4971 20.4123 21.4836 20.3918 21.4665 20.3746C21.4495 20.3573 21.4291 20.3436 21.4067 20.3341C21.3843 20.3247 21.3603 20.3198 21.336 20.3197H19.216C19.1671 20.3199 19.1203 20.3395 19.0858 20.3742C19.0514 20.4089 19.032 20.4558 19.032 20.5047V22.3927C19.032 22.4947 19.114 22.5777 19.217 22.5777H19.216ZM40.763 21.3897C40.698 21.3387 40.091 20.8797 38.809 20.8797C38.471 20.8807 38.133 20.9097 37.799 20.9667C37.551 19.2667 36.146 18.4367 36.083 18.4007L35.739 18.2017L35.513 18.5287C35.229 18.9667 35.023 19.4507 34.901 19.9587C34.671 20.9287 34.811 21.8407 35.304 22.6197C34.709 22.9517 33.754 23.0327 33.56 23.0397H17.751C17.5525 23.0399 17.3622 23.1188 17.2217 23.2589C17.0811 23.3991 17.0018 23.5892 17.001 23.7877C16.9825 25.1725 17.217 26.5491 17.693 27.8497C18.238 29.2777 19.048 30.3297 20.103 30.9737C21.283 31.6967 23.203 32.1107 25.378 32.1107C26.361 32.1137 27.341 32.0247 28.308 31.8447C29.6509 31.598 30.943 31.1285 32.131 30.4557C33.111 29.8887 33.991 29.1677 34.741 28.3197C35.993 26.9017 36.739 25.3227 37.294 23.9197H37.515C38.887 23.9197 39.73 23.3707 40.195 22.9107C40.504 22.6177 40.745 22.2607 40.902 21.8647L41 21.5767L40.763 21.3897Z" fill="white"/>
</g>
<path d="M61.4853 29.5L66.6253 16.16H63.3853L59.7053 26.42L56.0053 16.16H52.7653L57.9253 29.5H61.4853ZM69.4372 18.8C70.2772 18.8 70.9572 18.12 70.9572 17.28C70.9572 16.44 70.2772 15.78 69.4372 15.78C68.6172 15.78 67.9172 16.44 67.9172 17.28C67.9172 18.12 68.6172 18.8 69.4372 18.8ZM70.7172 29.5V19.84H68.1772V29.5H70.7172ZM78.1558 29.74C79.6558 29.74 81.1758 29.28 82.1358 28.4L81.0158 26.76C80.3958 27.36 79.2558 27.72 78.4358 27.72C76.7958 27.72 75.8158 26.7 75.6558 25.48H82.8358V24.92C82.8358 21.76 80.8758 19.6 77.9958 19.6C75.0558 19.6 72.9958 21.86 72.9958 24.66C72.9958 27.76 75.2158 29.74 78.1558 29.74ZM80.3758 23.76H75.6158C75.7358 22.8 76.4158 21.62 77.9958 21.62C79.6758 21.62 80.3158 22.84 80.3758 23.76ZM96.2305 29.5L99.1705 19.84H96.5305L94.7305 26.34L92.6105 19.84H90.3505L88.2305 26.34L86.4305 19.84H83.7905L86.7305 29.5H89.4505L91.4905 22.92L93.5305 29.5H96.2305ZM110.779 29.74C113.979 29.74 115.899 27.42 115.899 24.66C115.899 21.92 113.979 19.6 110.779 19.6C107.599 19.6 105.679 21.92 105.679 24.66C105.679 27.42 107.599 29.74 110.779 29.74ZM110.779 27.48C109.199 27.48 108.319 26.18 108.319 24.66C108.319 23.16 109.199 21.86 110.779 21.86C112.359 21.86 113.259 23.16 113.259 24.66C113.259 26.18 112.359 27.48 110.779 27.48ZM127.223 29.5V22.68C127.223 20.8 126.203 19.6 124.083 19.6C122.503 19.6 121.323 20.36 120.703 21.1V19.84H118.163V29.5H120.703V23C121.123 22.42 121.903 21.86 122.903 21.86C123.983 21.86 124.683 22.32 124.683 23.66V29.5H127.223ZM140.942 29.5C145.122 29.5 148.022 26.86 148.022 22.84C148.022 18.82 145.122 16.16 140.942 16.16H135.682V29.5H140.942ZM140.942 27H138.522V18.66H140.942C143.682 18.66 145.122 20.48 145.122 22.84C145.122 25.1 143.582 27 140.942 27ZM154.838 29.74C158.038 29.74 159.958 27.42 159.958 24.66C159.958 21.92 158.038 19.6 154.838 19.6C151.658 19.6 149.738 21.92 149.738 24.66C149.738 27.42 151.658 29.74 154.838 29.74ZM154.838 27.48C153.258 27.48 152.378 26.18 152.378 24.66C152.378 23.16 153.258 21.86 154.838 21.86C156.418 21.86 157.318 23.16 157.318 24.66C157.318 26.18 156.418 27.48 154.838 27.48ZM166.722 29.74C168.702 29.74 169.902 28.88 170.542 27.98L168.882 26.44C168.422 27.08 167.722 27.48 166.842 27.48C165.302 27.48 164.222 26.34 164.222 24.66C164.222 22.98 165.302 21.86 166.842 21.86C167.722 21.86 168.422 22.22 168.882 22.9L170.542 21.34C169.902 20.46 168.702 19.6 166.722 19.6C163.742 19.6 161.602 21.7 161.602 24.66C161.602 27.64 163.742 29.74 166.722 29.74ZM182.023 29.5L178.083 24.22L181.903 19.84H178.783L175.123 24.14V16.16H172.583V29.5H175.123V27.02L176.283 25.78L178.843 29.5H182.023ZM188.089 29.74C189.589 29.74 191.109 29.28 192.069 28.4L190.949 26.76C190.329 27.36 189.189 27.72 188.369 27.72C186.729 27.72 185.749 26.7 185.589 25.48H192.769V24.92C192.769 21.76 190.809 19.6 187.929 19.6C184.989 19.6 182.929 21.86 182.929 24.66C182.929 27.76 185.149 29.74 188.089 29.74ZM190.309 23.76H185.549C185.669 22.8 186.349 21.62 187.929 21.62C189.609 21.62 190.249 22.84 190.309 23.76ZM197.523 29.5V23.12C197.943 22.5 199.063 22.02 199.903 22.02C200.183 22.02 200.423 22.04 200.603 22.08V19.6C199.403 19.6 198.203 20.3 197.523 21.16V19.84H194.983V29.5H197.523ZM214.63 29.5V16.16H211.77V21.4H205.47V16.16H202.63V29.5H205.47V23.9H211.77V29.5H214.63ZM226.639 29.5V19.84H224.099V26.38C223.659 26.94 222.879 27.48 221.899 27.48C220.819 27.48 220.119 27.04 220.119 25.7V19.84H217.579V26.7C217.579 28.58 218.579 29.74 220.699 29.74C222.279 29.74 223.439 29.02 224.099 28.28V29.5H226.639ZM232.081 26.4V22.98C232.501 22.34 233.441 21.86 234.261 21.86C235.741 21.86 236.721 23 236.721 24.68C236.721 26.36 235.741 27.48 234.261 27.48C233.441 27.48 232.501 27.02 232.081 26.4ZM232.081 29.5V28.26C232.841 29.22 233.901 29.74 235.061 29.74C237.501 29.74 239.341 27.9 239.341 24.68C239.341 21.52 237.521 19.6 235.061 19.6C233.921 19.6 232.841 20.1 232.081 21.08V16.16H229.541V29.5H232.081Z" fill="white"/>
<defs>
<clipPath id="clip0_12415_320881">
<rect width="24" height="24" fill="white" transform="translate(17 11.5)"/>
</clipPath>
</defs>
</svg>
