<svg width="211" height="44" viewBox="0 0 211 44" fill="none" xmlns="http://www.w3.org/2000/svg">
<g filter="url(#filter0_dd_22_949)">
<path d="M2 11C2 5.47715 6.47715 1 12 1H199C204.523 1 209 5.47715 209 11V31C209 36.5228 204.523 41 199 41H12C6.47716 41 2 36.5228 2 31V11Z" fill="#1D63ED"/>
<path d="M2 11C2 5.47715 6.47715 1 12 1H199C204.523 1 209 5.47715 209 11V31C209 36.5228 204.523 41 199 41H12C6.47716 41 2 36.5228 2 31V11Z" fill="url(#paint0_linear_22_949)" fill-opacity="0.16"/>
<path d="M2.5 11C2.5 5.7533 6.75329 1.5 12 1.5H199C204.247 1.5 208.5 5.7533 208.5 11V31C208.5 36.2467 204.247 40.5 199 40.5H12C6.7533 40.5 2.5 36.2467 2.5 31V11Z" stroke="url(#paint1_linear_22_949)"/>
<path d="M20.7273 14.8182H19.2727V16.2727H20.7273V14.8182Z" fill="white"/>
<path d="M14.9091 17H16.3636V18.4545H14.9091V17Z" fill="white"/>
<path d="M12.0011 22.0483C12.1254 24.1583 13.382 27.1818 17.8182 27.1818C22.7636 27.1818 24.9697 23.5455 25.4545 21.7273C26.0606 21.7273 27.4182 21.3636 28 19.9091C27.6364 19.5455 26.1818 19.5455 25.4545 19.9091C25.4545 19.3273 25.0909 18.0909 24.3636 17.7273C23.8788 18.2121 23.1273 19.4727 24 20.6364C23.6364 21.3636 22.6667 21.3636 22.1818 21.3636H12.6857C12.3007 21.3636 11.9785 21.6639 12.0011 22.0483Z" fill="white"/>
<path d="M14.1818 19.1818H12.7273V20.6364H14.1818V19.1818Z" fill="white"/>
<path d="M14.9091 19.1818H16.3636V20.6364H14.9091V19.1818Z" fill="white"/>
<path d="M18.5455 19.1818H17.0909V20.6364H18.5455V19.1818Z" fill="white"/>
<path d="M19.2727 19.1818H20.7273V20.6364H19.2727V19.1818Z" fill="white"/>
<path d="M22.9091 19.1818H21.4545V20.6364H22.9091V19.1818Z" fill="white"/>
<path d="M18.5455 17H17.0909V18.4545H18.5455V17Z" fill="white"/>
<path d="M19.2727 17H20.7273V18.4545H19.2727V17Z" fill="white"/>
<path d="M38.0085 15.8182L40.8423 24.1108H40.9567L43.7905 15.8182H45.451L41.7869 26H40.0121L36.348 15.8182H38.0085ZM46.718 26V18.3636H48.2045V26H46.718ZM47.4687 17.1854C47.2102 17.1854 46.9881 17.0992 46.8025 16.9268C46.6202 16.7512 46.5291 16.5424 46.5291 16.3004C46.5291 16.0552 46.6202 15.8464 46.8025 15.674C46.9881 15.4983 47.2102 15.4105 47.4687 15.4105C47.7273 15.4105 47.9477 15.4983 48.13 15.674C48.3156 15.8464 48.4084 16.0552 48.4084 16.3004C48.4084 16.5424 48.3156 16.7512 48.13 16.9268C47.9477 17.0992 47.7273 17.1854 47.4687 17.1854ZM53.4115 26.1541C52.6592 26.1541 52.0112 25.9934 51.4677 25.6719C50.9274 25.3471 50.5098 24.8913 50.2148 24.3047C49.9231 23.7147 49.7773 23.0237 49.7773 22.2315C49.7773 21.4493 49.9231 20.7599 50.2148 20.1634C50.5098 19.5668 50.9208 19.1011 51.4478 18.7663C51.9781 18.4316 52.5979 18.2642 53.3071 18.2642C53.738 18.2642 54.1556 18.3355 54.56 18.478C54.9643 18.6205 55.3273 18.8442 55.6488 19.1491C55.9703 19.4541 56.2238 19.8501 56.4094 20.3374C56.595 20.8213 56.6878 21.4096 56.6878 22.1023V22.6293H50.6175V21.5156H55.2311C55.2311 21.1245 55.1516 20.7782 54.9925 20.4766C54.8334 20.1716 54.6097 19.9313 54.3213 19.7557C54.0363 19.58 53.7016 19.4922 53.3171 19.4922C52.8995 19.4922 52.5349 19.5949 52.2233 19.8004C51.9151 20.0026 51.6765 20.2678 51.5074 20.5959C51.3417 20.9207 51.2588 21.2737 51.2588 21.6548V22.5249C51.2588 23.0353 51.3483 23.4695 51.5273 23.8274C51.7096 24.1854 51.9632 24.4588 52.288 24.6477C52.6128 24.8333 52.9923 24.9261 53.4265 24.9261C53.7082 24.9261 53.965 24.8864 54.1971 24.8068C54.4291 24.724 54.6296 24.6013 54.7986 24.4389C54.9677 24.2765 55.0969 24.076 55.1864 23.8374L56.5934 24.0909C56.4807 24.5052 56.2785 24.8681 55.9868 25.1797C55.6985 25.4879 55.3356 25.7282 54.8981 25.9006C54.4639 26.0696 53.9684 26.1541 53.4115 26.1541ZM59.895 26L57.6479 18.3636H59.1841L60.6805 23.9716H60.7551L62.2565 18.3636H63.7927L65.2842 23.9467H65.3588L66.8453 18.3636H68.3815L66.1393 26H64.623L63.0719 20.4865H62.9575L61.4064 26H59.895ZM76.5459 26.1541C75.83 26.1541 75.2052 25.9901 74.6716 25.6619C74.138 25.3338 73.7237 24.8748 73.4287 24.2848C73.1337 23.6948 72.9863 23.0054 72.9863 22.2166C72.9863 21.4245 73.1337 20.7318 73.4287 20.1385C73.7237 19.5452 74.138 19.0845 74.6716 18.7564C75.2052 18.4283 75.83 18.2642 76.5459 18.2642C77.2618 18.2642 77.8866 18.4283 78.4202 18.7564C78.9538 19.0845 79.3681 19.5452 79.6631 20.1385C79.9581 20.7318 80.1056 21.4245 80.1056 22.2166C80.1056 23.0054 79.9581 23.6948 79.6631 24.2848C79.3681 24.8748 78.9538 25.3338 78.4202 25.6619C77.8866 25.9901 77.2618 26.1541 76.5459 26.1541ZM76.5509 24.9062C77.0149 24.9062 77.3994 24.7836 77.7043 24.5384C78.0092 24.2931 78.2346 23.9666 78.3804 23.5589C78.5296 23.1513 78.6041 22.7022 78.6041 22.2116C78.6041 21.7244 78.5296 21.277 78.3804 20.8693C78.2346 20.4583 78.0092 20.1286 77.7043 19.88C77.3994 19.6314 77.0149 19.5071 76.5509 19.5071C76.0836 19.5071 75.6958 19.6314 75.3875 19.88C75.0826 20.1286 74.8556 20.4583 74.7064 20.8693C74.5606 21.277 74.4877 21.7244 74.4877 22.2116C74.4877 22.7022 74.5606 23.1513 74.7064 23.5589C74.8556 23.9666 75.0826 24.2931 75.3875 24.5384C75.6958 24.7836 76.0836 24.9062 76.5509 24.9062ZM83.1673 21.4659V26H81.6808V18.3636H83.1077V19.6065H83.2021C83.3778 19.2022 83.6529 18.8774 84.0274 18.6321C84.4053 18.3868 84.8809 18.2642 85.4543 18.2642C85.9746 18.2642 86.4304 18.3736 86.8215 18.5923C87.2126 18.8078 87.5158 19.1293 87.7313 19.5568C87.9467 19.9844 88.0544 20.513 88.0544 21.1428V26H86.5679V21.3217C86.5679 20.7682 86.4237 20.3357 86.1354 20.0241C85.847 19.7093 85.451 19.5518 84.9472 19.5518C84.6025 19.5518 84.2959 19.6264 84.0274 19.7756C83.7623 19.9247 83.5518 20.1435 83.396 20.4318C83.2436 20.7169 83.1673 21.0616 83.1673 21.4659ZM97.0006 26H93.7044V15.8182H97.105C98.1026 15.8182 98.9594 16.022 99.6753 16.4297C100.391 16.834 100.94 17.4157 101.321 18.1747C101.705 18.9304 101.898 19.8369 101.898 20.8942C101.898 21.9548 101.704 22.8662 101.316 23.6286C100.931 24.3909 100.375 24.9775 99.6455 25.3885C98.9163 25.7962 98.0347 26 97.0006 26ZM95.2406 24.6577H96.9161C97.6916 24.6577 98.3363 24.5118 98.85 24.2202C99.3637 23.9252 99.7482 23.4993 100.003 22.9425C100.259 22.3823 100.386 21.6996 100.386 20.8942C100.386 20.0954 100.259 19.4176 100.003 18.8608C99.7515 18.304 99.3753 17.8814 98.8749 17.593C98.3744 17.3047 97.753 17.1605 97.0105 17.1605H95.2406V24.6577ZM106.821 26.1541C106.105 26.1541 105.481 25.9901 104.947 25.6619C104.413 25.3338 103.999 24.8748 103.704 24.2848C103.409 23.6948 103.262 23.0054 103.262 22.2166C103.262 21.4245 103.409 20.7318 103.704 20.1385C103.999 19.5452 104.413 19.0845 104.947 18.7564C105.481 18.4283 106.105 18.2642 106.821 18.2642C107.537 18.2642 108.162 18.4283 108.696 18.7564C109.229 19.0845 109.643 19.5452 109.938 20.1385C110.233 20.7318 110.381 21.4245 110.381 22.2166C110.381 23.0054 110.233 23.6948 109.938 24.2848C109.643 24.8748 109.229 25.3338 108.696 25.6619C108.162 25.9901 107.537 26.1541 106.821 26.1541ZM106.826 24.9062C107.29 24.9062 107.675 24.7836 107.98 24.5384C108.285 24.2931 108.51 23.9666 108.656 23.5589C108.805 23.1513 108.879 22.7022 108.879 22.2116C108.879 21.7244 108.805 21.277 108.656 20.8693C108.51 20.4583 108.285 20.1286 107.98 19.88C107.675 19.6314 107.29 19.5071 106.826 19.5071C106.359 19.5071 105.971 19.6314 105.663 19.88C105.358 20.1286 105.131 20.4583 104.982 20.8693C104.836 21.277 104.763 21.7244 104.763 22.2116C104.763 22.7022 104.836 23.1513 104.982 23.5589C105.131 23.9666 105.358 24.2931 105.663 24.5384C105.971 24.7836 106.359 24.9062 106.826 24.9062ZM115.173 26.1541C114.434 26.1541 113.797 25.9867 113.264 25.652C112.733 25.3139 112.326 24.8482 112.041 24.255C111.756 23.6617 111.613 22.9822 111.613 22.2166C111.613 21.4411 111.759 20.7566 112.051 20.1634C112.342 19.5668 112.753 19.1011 113.284 18.7663C113.814 18.4316 114.439 18.2642 115.158 18.2642C115.738 18.2642 116.255 18.3719 116.709 18.5874C117.163 18.7995 117.529 19.0978 117.808 19.4822C118.089 19.8667 118.257 20.3158 118.31 20.8295H116.863C116.784 20.4716 116.601 20.1634 116.316 19.9048C116.035 19.6463 115.657 19.517 115.183 19.517C114.768 19.517 114.406 19.6264 114.094 19.8452C113.786 20.0606 113.545 20.3688 113.373 20.7699C113.201 21.1676 113.115 21.6383 113.115 22.1818C113.115 22.7386 113.199 23.2192 113.368 23.6236C113.537 24.0279 113.776 24.3411 114.084 24.5632C114.396 24.7853 114.762 24.8963 115.183 24.8963C115.464 24.8963 115.72 24.8449 115.948 24.7422C116.18 24.6361 116.374 24.4853 116.53 24.2898C116.689 24.0942 116.8 23.8589 116.863 23.5838H118.31C118.257 24.0777 118.096 24.5185 117.828 24.9062C117.559 25.294 117.2 25.599 116.749 25.821C116.301 26.0431 115.776 26.1541 115.173 26.1541ZM121.183 23.4098L121.173 21.5952H121.431L124.474 18.3636H126.254L122.784 22.0426H122.55L121.183 23.4098ZM119.816 26V15.8182H121.302V26H119.816ZM124.638 26L121.904 22.3707L122.928 21.3317L126.463 26H124.638ZM130.501 26.1541C129.749 26.1541 129.101 25.9934 128.557 25.6719C128.017 25.3471 127.599 24.8913 127.304 24.3047C127.013 23.7147 126.867 23.0237 126.867 22.2315C126.867 21.4493 127.013 20.7599 127.304 20.1634C127.599 19.5668 128.01 19.1011 128.537 18.7663C129.068 18.4316 129.688 18.2642 130.397 18.2642C130.828 18.2642 131.245 18.3355 131.65 18.478C132.054 18.6205 132.417 18.8442 132.738 19.1491C133.06 19.4541 133.313 19.8501 133.499 20.3374C133.685 20.8213 133.778 21.4096 133.778 22.1023V22.6293H127.707V21.5156H132.321C132.321 21.1245 132.241 20.7782 132.082 20.4766C131.923 20.1716 131.699 19.9313 131.411 19.7557C131.126 19.58 130.791 19.4922 130.407 19.4922C129.989 19.4922 129.625 19.5949 129.313 19.8004C129.005 20.0026 128.766 20.2678 128.597 20.5959C128.431 20.9207 128.349 21.2737 128.349 21.6548V22.5249C128.349 23.0353 128.438 23.4695 128.617 23.8274C128.799 24.1854 129.053 24.4588 129.378 24.6477C129.702 24.8333 130.082 24.9261 130.516 24.9261C130.798 24.9261 131.055 24.8864 131.287 24.8068C131.519 24.724 131.719 24.6013 131.888 24.4389C132.057 24.2765 132.187 24.076 132.276 23.8374L133.683 24.0909C133.57 24.5052 133.368 24.8681 133.077 25.1797C132.788 25.4879 132.425 25.7282 131.988 25.9006C131.554 26.0696 131.058 26.1541 130.501 26.1541ZM135.343 26V18.3636H136.78V19.5767H136.859C136.998 19.1657 137.244 18.8426 137.595 18.6072C137.95 18.3686 138.351 18.2493 138.798 18.2493C138.891 18.2493 139 18.2526 139.126 18.2592C139.255 18.2659 139.357 18.2741 139.429 18.2841V19.706C139.37 19.6894 139.264 19.6712 139.111 19.6513C138.959 19.6281 138.806 19.6165 138.654 19.6165C138.303 19.6165 137.989 19.6911 137.714 19.8402C137.443 19.986 137.227 20.1899 137.068 20.4517C136.909 20.7102 136.829 21.0052 136.829 21.3366V26H135.343ZM144.372 26V15.8182H145.908V20.2429H150.984V15.8182H152.526V26H150.984V21.5604H145.908V26H144.372ZM159.397 22.8331V18.3636H160.888V26H159.427V24.6776H159.347C159.172 25.0852 158.89 25.425 158.502 25.6967C158.118 25.9652 157.639 26.0994 157.065 26.0994C156.575 26.0994 156.141 25.9917 155.763 25.7763C155.388 25.5575 155.093 25.2344 154.878 24.8068C154.666 24.3793 154.56 23.8506 154.56 23.2209V18.3636H156.046V23.0419C156.046 23.5623 156.19 23.9766 156.479 24.2848C156.767 24.593 157.141 24.7472 157.602 24.7472C157.881 24.7472 158.157 24.6776 158.432 24.5384C158.711 24.3991 158.941 24.1887 159.124 23.907C159.309 23.6252 159.4 23.2673 159.397 22.8331ZM162.921 26V15.8182H164.408V19.6016H164.497C164.583 19.4425 164.708 19.2585 164.87 19.0497C165.032 18.8409 165.258 18.6586 165.546 18.5028C165.834 18.3438 166.216 18.2642 166.69 18.2642C167.306 18.2642 167.856 18.42 168.34 18.7315C168.824 19.0431 169.204 19.4922 169.479 20.0788C169.757 20.6655 169.896 21.3714 169.896 22.1967C169.896 23.022 169.759 23.7296 169.484 24.3196C169.208 24.9062 168.831 25.3587 168.35 25.6768C167.869 25.9917 167.321 26.1491 166.704 26.1491C166.24 26.1491 165.861 26.0713 165.566 25.9155C165.274 25.7597 165.046 25.5774 164.88 25.3686C164.714 25.1598 164.587 24.9742 164.497 24.8118H164.373V26H162.921ZM164.378 22.1818C164.378 22.7187 164.456 23.1894 164.611 23.5938C164.767 23.9981 164.993 24.3146 165.288 24.5433C165.583 24.7687 165.944 24.8814 166.371 24.8814C166.815 24.8814 167.187 24.7637 167.485 24.5284C167.783 24.2898 168.009 23.9666 168.161 23.5589C168.317 23.1513 168.395 22.6922 168.395 22.1818C168.395 21.678 168.319 21.2256 168.166 20.8246C168.017 20.4235 167.792 20.107 167.49 19.875C167.192 19.643 166.819 19.527 166.371 19.527C165.94 19.527 165.576 19.638 165.278 19.8601C164.983 20.0821 164.759 20.392 164.606 20.7898C164.454 21.1875 164.378 21.6515 164.378 22.1818Z" fill="white"/>
<path d="M187.5 16.5V18H183.75V26.25H192V22.5H193.5V27C193.5 27.1989 193.421 27.3897 193.28 27.5303C193.14 27.671 192.949 27.75 192.75 27.75H183C182.801 27.75 182.61 27.671 182.47 27.5303C182.329 27.3897 182.25 27.1989 182.25 27V17.25C182.25 17.0511 182.329 16.8603 182.47 16.7197C182.61 16.579 182.801 16.5 183 16.5H187.5ZM195.75 14.25V20.25H194.25V16.8098L188.405 22.6552L187.345 21.5948L193.189 15.75H189.75V14.25H195.75Z" fill="white"/>
</g>
<defs>
<filter id="filter0_dd_22_949" x="0" y="0" width="211" height="44" filterUnits="userSpaceOnUse" color-interpolation-filters="sRGB">
<feFlood flood-opacity="0" result="BackgroundImageFix"/>
<feColorMatrix in="SourceAlpha" type="matrix" values="0 0 0 0 0 0 0 0 0 0 0 0 0 0 0 0 0 0 127 0" result="hardAlpha"/>
<feMorphology radius="1" operator="dilate" in="SourceAlpha" result="effect1_dropShadow_22_949"/>
<feOffset/>
<feComposite in2="hardAlpha" operator="out"/>
<feColorMatrix type="matrix" values="0 0 0 0 0.2 0 0 0 0 0.36087 0 0 0 0 1 0 0 0 1 0"/>
<feBlend mode="normal" in2="BackgroundImageFix" result="effect1_dropShadow_22_949"/>
<feColorMatrix in="SourceAlpha" type="matrix" values="0 0 0 0 0 0 0 0 0 0 0 0 0 0 0 0 0 0 127 0" result="hardAlpha"/>
<feOffset dy="1"/>
<feGaussianBlur stdDeviation="1"/>
<feComposite in2="hardAlpha" operator="out"/>
<feColorMatrix type="matrix" values="0 0 0 0 0.0533333 0 0 0 0 0.0693333 0 0 0 0 0.106667 0 0 0 0.24 0"/>
<feBlend mode="normal" in2="effect1_dropShadow_22_949" result="effect2_dropShadow_22_949"/>
<feBlend mode="normal" in="SourceGraphic" in2="effect2_dropShadow_22_949" result="shape"/>
</filter>
<linearGradient id="paint0_linear_22_949" x1="105.5" y1="1" x2="105.5" y2="41" gradientUnits="userSpaceOnUse">
<stop stop-color="white"/>
<stop offset="1" stop-color="white" stop-opacity="0"/>
</linearGradient>
<linearGradient id="paint1_linear_22_949" x1="105.5" y1="1" x2="105.5" y2="41" gradientUnits="userSpaceOnUse">
<stop stop-color="white" stop-opacity="0.12"/>
<stop offset="1" stop-color="white" stop-opacity="0"/>
</linearGradient>
</defs>
</svg>
