<svg width="211" height="36" viewBox="0 0 211 36" fill="none" xmlns="http://www.w3.org/2000/svg">
<g filter="url(#filter0_dd_22_949)">
<path d="M2 11C2 5.47715 6.47715 1 12 1H199C204.523 1 209 5.47715 209 11V23C209 28.5228 204.523 33 199 33H12C6.47716 33 2 28.5228 2 23V11Z" fill="#1D63ED"/>
<path d="M2 11C2 5.47715 6.47715 1 12 1H199C204.523 1 209 5.47715 209 11V23C209 28.5228 204.523 33 199 33H12C6.47716 33 2 28.5228 2 23V11Z" fill="url(#paint0_linear_22_949)" fill-opacity="0.16"/>
<path d="M12 1.5H199C204.247 1.5 208.5 5.7533 208.5 11V23C208.5 28.2467 204.247 32.5 199 32.5H12C6.7533 32.5 2.5 28.2467 2.5 23V11C2.5 5.75329 6.75329 1.5 12 1.5Z" stroke="url(#paint1_linear_22_949)"/>
<path d="M20.7273 10.8182H19.2727V12.2727H20.7273V10.8182Z" fill="white"/>
<path d="M14.9091 13H16.3636V14.4545H14.9091V13Z" fill="white"/>
<path d="M12.0011 18.0483C12.1254 20.1583 13.382 23.1818 17.8182 23.1818C22.7636 23.1818 24.9697 19.5455 25.4545 17.7273C26.0606 17.7273 27.4182 17.3636 28 15.9091C27.6364 15.5455 26.1818 15.5455 25.4545 15.9091C25.4545 15.3273 25.0909 14.0909 24.3636 13.7273C23.8788 14.2121 23.1273 15.4727 24 16.6364C23.6364 17.3636 22.6667 17.3636 22.1818 17.3636H12.6857C12.3007 17.3636 11.9785 17.6639 12.0011 18.0483Z" fill="white"/>
<path d="M14.1818 15.1818H12.7273V16.6364H14.1818V15.1818Z" fill="white"/>
<path d="M14.9091 15.1818H16.3636V16.6364H14.9091V15.1818Z" fill="white"/>
<path d="M18.5455 15.1818H17.0909V16.6364H18.5455V15.1818Z" fill="white"/>
<path d="M19.2727 15.1818H20.7273V16.6364H19.2727V15.1818Z" fill="white"/>
<path d="M22.9091 15.1818H21.4545V16.6364H22.9091V15.1818Z" fill="white"/>
<path d="M18.5455 13H17.0909V14.4545H18.5455V13Z" fill="white"/>
<path d="M19.2727 13H20.7273V14.4545H19.2727V13Z" fill="white"/>
<path d="M38.0085 11.8182L40.8423 20.1108H40.9567L43.7905 11.8182H45.451L41.7869 22H40.0121L36.348 11.8182H38.0085ZM46.718 22V14.3636H48.2045V22H46.718ZM47.4687 13.1854C47.2102 13.1854 46.9881 13.0992 46.8025 12.9268C46.6202 12.7512 46.5291 12.5424 46.5291 12.3004C46.5291 12.0552 46.6202 11.8464 46.8025 11.674C46.9881 11.4983 47.2102 11.4105 47.4687 11.4105C47.7273 11.4105 47.9477 11.4983 48.13 11.674C48.3156 11.8464 48.4084 12.0552 48.4084 12.3004C48.4084 12.5424 48.3156 12.7512 48.13 12.9268C47.9477 13.0992 47.7273 13.1854 47.4687 13.1854ZM53.4115 22.1541C52.6592 22.1541 52.0112 21.9934 51.4677 21.6719C50.9274 21.3471 50.5098 20.8913 50.2148 20.3047C49.9231 19.7147 49.7773 19.0237 49.7773 18.2315C49.7773 17.4493 49.9231 16.7599 50.2148 16.1634C50.5098 15.5668 50.9208 15.1011 51.4478 14.7663C51.9781 14.4316 52.5979 14.2642 53.3071 14.2642C53.738 14.2642 54.1556 14.3355 54.56 14.478C54.9643 14.6205 55.3273 14.8442 55.6488 15.1491C55.9703 15.4541 56.2238 15.8501 56.4094 16.3374C56.595 16.8213 56.6878 17.4096 56.6878 18.1023V18.6293H50.6175V17.5156H55.2311C55.2311 17.1245 55.1516 16.7782 54.9925 16.4766C54.8334 16.1716 54.6097 15.9313 54.3213 15.7557C54.0363 15.58 53.7016 15.4922 53.3171 15.4922C52.8995 15.4922 52.5349 15.5949 52.2233 15.8004C51.9151 16.0026 51.6765 16.2678 51.5074 16.5959C51.3417 16.9207 51.2588 17.2737 51.2588 17.6548V18.5249C51.2588 19.0353 51.3483 19.4695 51.5273 19.8274C51.7096 20.1854 51.9632 20.4588 52.288 20.6477C52.6128 20.8333 52.9923 20.9261 53.4265 20.9261C53.7082 20.9261 53.965 20.8864 54.1971 20.8068C54.4291 20.724 54.6296 20.6013 54.7986 20.4389C54.9677 20.2765 55.0969 20.076 55.1864 19.8374L56.5934 20.0909C56.4807 20.5052 56.2785 20.8681 55.9868 21.1797C55.6985 21.4879 55.3356 21.7282 54.8981 21.9006C54.4639 22.0696 53.9684 22.1541 53.4115 22.1541ZM59.895 22L57.6479 14.3636H59.1841L60.6805 19.9716H60.7551L62.2565 14.3636H63.7927L65.2842 19.9467H65.3588L66.8453 14.3636H68.3815L66.1393 22H64.623L63.0719 16.4865H62.9575L61.4064 22H59.895ZM76.5459 22.1541C75.83 22.1541 75.2052 21.9901 74.6716 21.6619C74.138 21.3338 73.7237 20.8748 73.4287 20.2848C73.1337 19.6948 72.9863 19.0054 72.9863 18.2166C72.9863 17.4245 73.1337 16.7318 73.4287 16.1385C73.7237 15.5452 74.138 15.0845 74.6716 14.7564C75.2052 14.4283 75.83 14.2642 76.5459 14.2642C77.2618 14.2642 77.8866 14.4283 78.4202 14.7564C78.9538 15.0845 79.3681 15.5452 79.6631 16.1385C79.9581 16.7318 80.1056 17.4245 80.1056 18.2166C80.1056 19.0054 79.9581 19.6948 79.6631 20.2848C79.3681 20.8748 78.9538 21.3338 78.4202 21.6619C77.8866 21.9901 77.2618 22.1541 76.5459 22.1541ZM76.5509 20.9062C77.0149 20.9062 77.3994 20.7836 77.7043 20.5384C78.0092 20.2931 78.2346 19.9666 78.3804 19.5589C78.5296 19.1513 78.6041 18.7022 78.6041 18.2116C78.6041 17.7244 78.5296 17.277 78.3804 16.8693C78.2346 16.4583 78.0092 16.1286 77.7043 15.88C77.3994 15.6314 77.0149 15.5071 76.5509 15.5071C76.0836 15.5071 75.6958 15.6314 75.3875 15.88C75.0826 16.1286 74.8556 16.4583 74.7064 16.8693C74.5606 17.277 74.4877 17.7244 74.4877 18.2116C74.4877 18.7022 74.5606 19.1513 74.7064 19.5589C74.8556 19.9666 75.0826 20.2931 75.3875 20.5384C75.6958 20.7836 76.0836 20.9062 76.5509 20.9062ZM83.1673 17.4659V22H81.6808V14.3636H83.1077V15.6065H83.2021C83.3778 15.2022 83.6529 14.8774 84.0274 14.6321C84.4053 14.3868 84.8809 14.2642 85.4543 14.2642C85.9746 14.2642 86.4304 14.3736 86.8215 14.5923C87.2126 14.8078 87.5158 15.1293 87.7313 15.5568C87.9467 15.9844 88.0544 16.513 88.0544 17.1428V22H86.5679V17.3217C86.5679 16.7682 86.4237 16.3357 86.1354 16.0241C85.847 15.7093 85.451 15.5518 84.9472 15.5518C84.6025 15.5518 84.2959 15.6264 84.0274 15.7756C83.7623 15.9247 83.5518 16.1435 83.396 16.4318C83.2436 16.7169 83.1673 17.0616 83.1673 17.4659ZM97.0006 22H93.7044V11.8182H97.105C98.1026 11.8182 98.9594 12.022 99.6753 12.4297C100.391 12.834 100.94 13.4157 101.321 14.1747C101.705 14.9304 101.898 15.8369 101.898 16.8942C101.898 17.9548 101.704 18.8662 101.316 19.6286C100.931 20.3909 100.375 20.9775 99.6455 21.3885C98.9163 21.7962 98.0347 22 97.0006 22ZM95.2406 20.6577H96.9161C97.6916 20.6577 98.3363 20.5118 98.85 20.2202C99.3637 19.9252 99.7482 19.4993 100.003 18.9425C100.259 18.3823 100.386 17.6996 100.386 16.8942C100.386 16.0954 100.259 15.4176 100.003 14.8608C99.7515 14.304 99.3753 13.8814 98.8749 13.593C98.3744 13.3047 97.753 13.1605 97.0105 13.1605H95.2406V20.6577ZM106.821 22.1541C106.105 22.1541 105.481 21.9901 104.947 21.6619C104.413 21.3338 103.999 20.8748 103.704 20.2848C103.409 19.6948 103.262 19.0054 103.262 18.2166C103.262 17.4245 103.409 16.7318 103.704 16.1385C103.999 15.5452 104.413 15.0845 104.947 14.7564C105.481 14.4283 106.105 14.2642 106.821 14.2642C107.537 14.2642 108.162 14.4283 108.696 14.7564C109.229 15.0845 109.643 15.5452 109.938 16.1385C110.233 16.7318 110.381 17.4245 110.381 18.2166C110.381 19.0054 110.233 19.6948 109.938 20.2848C109.643 20.8748 109.229 21.3338 108.696 21.6619C108.162 21.9901 107.537 22.1541 106.821 22.1541ZM106.826 20.9062C107.29 20.9062 107.675 20.7836 107.98 20.5384C108.285 20.2931 108.51 19.9666 108.656 19.5589C108.805 19.1513 108.879 18.7022 108.879 18.2116C108.879 17.7244 108.805 17.277 108.656 16.8693C108.51 16.4583 108.285 16.1286 107.98 15.88C107.675 15.6314 107.29 15.5071 106.826 15.5071C106.359 15.5071 105.971 15.6314 105.663 15.88C105.358 16.1286 105.131 16.4583 104.982 16.8693C104.836 17.277 104.763 17.7244 104.763 18.2116C104.763 18.7022 104.836 19.1513 104.982 19.5589C105.131 19.9666 105.358 20.2931 105.663 20.5384C105.971 20.7836 106.359 20.9062 106.826 20.9062ZM115.173 22.1541C114.434 22.1541 113.797 21.9867 113.264 21.652C112.733 21.3139 112.326 20.8482 112.041 20.255C111.756 19.6617 111.613 18.9822 111.613 18.2166C111.613 17.4411 111.759 16.7566 112.051 16.1634C112.342 15.5668 112.753 15.1011 113.284 14.7663C113.814 14.4316 114.439 14.2642 115.158 14.2642C115.738 14.2642 116.255 14.3719 116.709 14.5874C117.163 14.7995 117.529 15.0978 117.808 15.4822C118.089 15.8667 118.257 16.3158 118.31 16.8295H116.863C116.784 16.4716 116.601 16.1634 116.316 15.9048C116.035 15.6463 115.657 15.517 115.183 15.517C114.768 15.517 114.406 15.6264 114.094 15.8452C113.786 16.0606 113.545 16.3688 113.373 16.7699C113.201 17.1676 113.115 17.6383 113.115 18.1818C113.115 18.7386 113.199 19.2192 113.368 19.6236C113.537 20.0279 113.776 20.3411 114.084 20.5632C114.396 20.7853 114.762 20.8963 115.183 20.8963C115.464 20.8963 115.72 20.8449 115.948 20.7422C116.18 20.6361 116.374 20.4853 116.53 20.2898C116.689 20.0942 116.8 19.8589 116.863 19.5838H118.31C118.257 20.0777 118.096 20.5185 117.828 20.9062C117.559 21.294 117.2 21.599 116.749 21.821C116.301 22.0431 115.776 22.1541 115.173 22.1541ZM121.183 19.4098L121.173 17.5952H121.431L124.474 14.3636H126.254L122.784 18.0426H122.55L121.183 19.4098ZM119.816 22V11.8182H121.302V22H119.816ZM124.638 22L121.904 18.3707L122.928 17.3317L126.463 22H124.638ZM130.501 22.1541C129.749 22.1541 129.101 21.9934 128.557 21.6719C128.017 21.3471 127.599 20.8913 127.304 20.3047C127.013 19.7147 126.867 19.0237 126.867 18.2315C126.867 17.4493 127.013 16.7599 127.304 16.1634C127.599 15.5668 128.01 15.1011 128.537 14.7663C129.068 14.4316 129.688 14.2642 130.397 14.2642C130.828 14.2642 131.245 14.3355 131.65 14.478C132.054 14.6205 132.417 14.8442 132.738 15.1491C133.06 15.4541 133.313 15.8501 133.499 16.3374C133.685 16.8213 133.778 17.4096 133.778 18.1023V18.6293H127.707V17.5156H132.321C132.321 17.1245 132.241 16.7782 132.082 16.4766C131.923 16.1716 131.699 15.9313 131.411 15.7557C131.126 15.58 130.791 15.4922 130.407 15.4922C129.989 15.4922 129.625 15.5949 129.313 15.8004C129.005 16.0026 128.766 16.2678 128.597 16.5959C128.431 16.9207 128.349 17.2737 128.349 17.6548V18.5249C128.349 19.0353 128.438 19.4695 128.617 19.8274C128.799 20.1854 129.053 20.4588 129.378 20.6477C129.702 20.8333 130.082 20.9261 130.516 20.9261C130.798 20.9261 131.055 20.8864 131.287 20.8068C131.519 20.724 131.719 20.6013 131.888 20.4389C132.057 20.2765 132.187 20.076 132.276 19.8374L133.683 20.0909C133.57 20.5052 133.368 20.8681 133.077 21.1797C132.788 21.4879 132.425 21.7282 131.988 21.9006C131.554 22.0696 131.058 22.1541 130.501 22.1541ZM135.343 22V14.3636H136.78V15.5767H136.859C136.998 15.1657 137.244 14.8426 137.595 14.6072C137.95 14.3686 138.351 14.2493 138.798 14.2493C138.891 14.2493 139 14.2526 139.126 14.2592C139.255 14.2659 139.357 14.2741 139.429 14.2841V15.706C139.37 15.6894 139.264 15.6712 139.111 15.6513C138.959 15.6281 138.806 15.6165 138.654 15.6165C138.303 15.6165 137.989 15.6911 137.714 15.8402C137.443 15.986 137.227 16.1899 137.068 16.4517C136.909 16.7102 136.829 17.0052 136.829 17.3366V22H135.343ZM144.372 22V11.8182H145.908V16.2429H150.984V11.8182H152.526V22H150.984V17.5604H145.908V22H144.372ZM159.397 18.8331V14.3636H160.888V22H159.427V20.6776H159.347C159.172 21.0852 158.89 21.425 158.502 21.6967C158.118 21.9652 157.639 22.0994 157.065 22.0994C156.575 22.0994 156.141 21.9917 155.763 21.7763C155.388 21.5575 155.093 21.2344 154.878 20.8068C154.666 20.3793 154.56 19.8506 154.56 19.2209V14.3636H156.046V19.0419C156.046 19.5623 156.19 19.9766 156.479 20.2848C156.767 20.593 157.141 20.7472 157.602 20.7472C157.881 20.7472 158.157 20.6776 158.432 20.5384C158.711 20.3991 158.941 20.1887 159.124 19.907C159.309 19.6252 159.4 19.2673 159.397 18.8331ZM162.921 22V11.8182H164.408V15.6016H164.497C164.583 15.4425 164.708 15.2585 164.87 15.0497C165.032 14.8409 165.258 14.6586 165.546 14.5028C165.834 14.3438 166.216 14.2642 166.69 14.2642C167.306 14.2642 167.856 14.42 168.34 14.7315C168.824 15.0431 169.204 15.4922 169.479 16.0788C169.757 16.6655 169.896 17.3714 169.896 18.1967C169.896 19.022 169.759 19.7296 169.484 20.3196C169.208 20.9062 168.831 21.3587 168.35 21.6768C167.869 21.9917 167.321 22.1491 166.704 22.1491C166.24 22.1491 165.861 22.0713 165.566 21.9155C165.274 21.7597 165.046 21.5774 164.88 21.3686C164.714 21.1598 164.587 20.9742 164.497 20.8118H164.373V22H162.921ZM164.378 18.1818C164.378 18.7187 164.456 19.1894 164.611 19.5938C164.767 19.9981 164.993 20.3146 165.288 20.5433C165.583 20.7687 165.944 20.8814 166.371 20.8814C166.815 20.8814 167.187 20.7637 167.485 20.5284C167.783 20.2898 168.009 19.9666 168.161 19.5589C168.317 19.1513 168.395 18.6922 168.395 18.1818C168.395 17.678 168.319 17.2256 168.166 16.8246C168.017 16.4235 167.792 16.107 167.49 15.875C167.192 15.643 166.819 15.527 166.371 15.527C165.94 15.527 165.576 15.638 165.278 15.8601C164.983 16.0821 164.759 16.392 164.606 16.7898C164.454 17.1875 164.378 17.6515 164.378 18.1818Z" fill="white"/>
<path d="M187.5 12.5V14H183.75V22.25H192V18.5H193.5V23C193.5 23.1989 193.421 23.3897 193.28 23.5303C193.14 23.671 192.949 23.75 192.75 23.75H183C182.801 23.75 182.61 23.671 182.47 23.5303C182.329 23.3897 182.25 23.1989 182.25 23V13.25C182.25 13.0511 182.329 12.8603 182.47 12.7197C182.61 12.579 182.801 12.5 183 12.5H187.5ZM195.75 10.25V16.25H194.25V12.8098L188.405 18.6552L187.345 17.5948L193.189 11.75H189.75V10.25H195.75Z" fill="white"/>
</g>
<defs>
<filter id="filter0_dd_22_949" x="0" y="0" width="211" height="36" filterUnits="userSpaceOnUse" color-interpolation-filters="sRGB">
<feFlood flood-opacity="0" result="BackgroundImageFix"/>
<feColorMatrix in="SourceAlpha" type="matrix" values="0 0 0 0 0 0 0 0 0 0 0 0 0 0 0 0 0 0 127 0" result="hardAlpha"/>
<feMorphology radius="1" operator="dilate" in="SourceAlpha" result="effect1_dropShadow_22_949"/>
<feOffset/>
<feComposite in2="hardAlpha" operator="out"/>
<feColorMatrix type="matrix" values="0 0 0 0 0.2 0 0 0 0 0.36087 0 0 0 0 1 0 0 0 1 0"/>
<feBlend mode="normal" in2="BackgroundImageFix" result="effect1_dropShadow_22_949"/>
<feColorMatrix in="SourceAlpha" type="matrix" values="0 0 0 0 0 0 0 0 0 0 0 0 0 0 0 0 0 0 127 0" result="hardAlpha"/>
<feOffset dy="1"/>
<feGaussianBlur stdDeviation="1"/>
<feComposite in2="hardAlpha" operator="out"/>
<feColorMatrix type="matrix" values="0 0 0 0 0.0533333 0 0 0 0 0.0693333 0 0 0 0 0.106667 0 0 0 0.24 0"/>
<feBlend mode="normal" in2="effect1_dropShadow_22_949" result="effect2_dropShadow_22_949"/>
<feBlend mode="normal" in="SourceGraphic" in2="effect2_dropShadow_22_949" result="shape"/>
</filter>
<linearGradient id="paint0_linear_22_949" x1="105.5" y1="1" x2="105.5" y2="33" gradientUnits="userSpaceOnUse">
<stop stop-color="white"/>
<stop offset="1" stop-color="white" stop-opacity="0"/>
</linearGradient>
<linearGradient id="paint1_linear_22_949" x1="105.5" y1="1" x2="105.5" y2="33" gradientUnits="userSpaceOnUse">
<stop stop-color="white" stop-opacity="0.12"/>
<stop offset="1" stop-color="white" stop-opacity="0"/>
</linearGradient>
</defs>
</svg>
