<svg width="137" height="44" viewBox="0 0 137 44" fill="none" xmlns="http://www.w3.org/2000/svg">
<g filter="url(#filter0_dd_57_126)">
<path d="M2 11C2 5.47715 6.47715 1 12 1H125C130.523 1 135 5.47715 135 11V31C135 36.5228 130.523 41 125 41H12C6.47715 41 2 36.5228 2 31V11Z" fill="#335CFF"/>
<path d="M2 11C2 5.47715 6.47715 1 12 1H125C130.523 1 135 5.47715 135 11V31C135 36.5228 130.523 41 125 41H12C6.47715 41 2 36.5228 2 31V11Z" fill="url(#paint0_linear_57_126)" fill-opacity="0.16"/>
<path d="M12 1.5H125C130.247 1.5 134.5 5.75329 134.5 11V31C134.5 36.2467 130.247 40.5 125 40.5H12C6.7533 40.5 2.5 36.2467 2.5 31V11C2.5 5.75329 6.75329 1.5 12 1.5Z" stroke="url(#paint1_linear_57_126)"/>
<path d="M18.0085 15.8182L20.8423 24.1108H20.9567L23.7905 15.8182H25.451L21.7869 26H20.0121L16.348 15.8182H18.0085ZM26.718 26V18.3636H28.2045V26H26.718ZM27.4687 17.1854C27.2102 17.1854 26.9881 17.0992 26.8025 16.9268C26.6202 16.7512 26.5291 16.5424 26.5291 16.3004C26.5291 16.0552 26.6202 15.8464 26.8025 15.674C26.9881 15.4983 27.2102 15.4105 27.4687 15.4105C27.7273 15.4105 27.9477 15.4983 28.13 15.674C28.3156 15.8464 28.4084 16.0552 28.4084 16.3004C28.4084 16.5424 28.3156 16.7512 28.13 16.9268C27.9477 17.0992 27.7273 17.1854 27.4687 17.1854ZM33.4115 26.1541C32.6592 26.1541 32.0112 25.9934 31.4677 25.6719C30.9274 25.3471 30.5098 24.8913 30.2148 24.3047C29.9231 23.7147 29.7773 23.0237 29.7773 22.2315C29.7773 21.4493 29.9231 20.7599 30.2148 20.1634C30.5098 19.5668 30.9208 19.1011 31.4478 18.7663C31.9781 18.4316 32.5979 18.2642 33.3071 18.2642C33.738 18.2642 34.1556 18.3355 34.56 18.478C34.9643 18.6205 35.3273 18.8442 35.6488 19.1491C35.9703 19.4541 36.2238 19.8501 36.4094 20.3374C36.595 20.8213 36.6878 21.4096 36.6878 22.1023V22.6293H30.6175V21.5156H35.2311C35.2311 21.1245 35.1516 20.7782 34.9925 20.4766C34.8334 20.1716 34.6097 19.9313 34.3213 19.7557C34.0363 19.58 33.7016 19.4922 33.3171 19.4922C32.8995 19.4922 32.5349 19.5949 32.2233 19.8004C31.9151 20.0026 31.6765 20.2678 31.5074 20.5959C31.3417 20.9207 31.2588 21.2737 31.2588 21.6548V22.5249C31.2588 23.0353 31.3483 23.4695 31.5273 23.8274C31.7096 24.1854 31.9632 24.4588 32.288 24.6477C32.6128 24.8333 32.9923 24.9261 33.4265 24.9261C33.7082 24.9261 33.965 24.8864 34.1971 24.8068C34.4291 24.724 34.6296 24.6013 34.7986 24.4389C34.9677 24.2765 35.0969 24.076 35.1864 23.8374L36.5934 24.0909C36.4807 24.5052 36.2785 24.8681 35.9868 25.1797C35.6985 25.4879 35.3356 25.7282 34.8981 25.9006C34.4639 26.0696 33.9684 26.1541 33.4115 26.1541ZM39.895 26L37.6479 18.3636H39.1841L40.6805 23.9716H40.7551L42.2565 18.3636H43.7927L45.2842 23.9467H45.3588L46.8453 18.3636H48.3815L46.1393 26H44.623L43.0719 20.4865H42.9575L41.4064 26H39.895ZM56.188 26.1491C55.5715 26.1491 55.0213 25.9917 54.5374 25.6768C54.0568 25.3587 53.679 24.9062 53.4039 24.3196C53.1321 23.7296 52.9962 23.022 52.9962 22.1967C52.9962 21.3714 53.1337 20.6655 53.4088 20.0788C53.6872 19.4922 54.0684 19.0431 54.5523 18.7315C55.0362 18.42 55.5847 18.2642 56.1979 18.2642C56.6719 18.2642 57.053 18.3438 57.3414 18.5028C57.633 18.6586 57.8584 18.8409 58.0175 19.0497C58.1799 19.2585 58.3059 19.4425 58.3953 19.6016H58.4848V15.8182H59.9713V26H58.5196V24.8118H58.3953C58.3059 24.9742 58.1766 25.1598 58.0076 25.3686C57.8418 25.5774 57.6131 25.7597 57.3215 25.9155C57.0298 26.0713 56.652 26.1491 56.188 26.1491ZM56.5161 24.8814C56.9436 24.8814 57.3049 24.7687 57.5999 24.5433C57.8982 24.3146 58.1236 23.9981 58.276 23.5938C58.4318 23.1894 58.5097 22.7187 58.5097 22.1818C58.5097 21.6515 58.4335 21.1875 58.281 20.7898C58.1285 20.392 57.9048 20.0821 57.6098 19.8601C57.3149 19.638 56.9503 19.527 56.5161 19.527C56.0686 19.527 55.6958 19.643 55.3975 19.875C55.0992 20.107 54.8738 20.4235 54.7213 20.8246C54.5722 21.2256 54.4976 21.678 54.4976 22.1818C54.4976 22.6922 54.5738 23.1513 54.7263 23.5589C54.8788 23.9666 55.1041 24.2898 55.4024 24.5284C55.7041 24.7637 56.0753 24.8814 56.5161 24.8814ZM65.3002 26.1541C64.5478 26.1541 63.8998 25.9934 63.3563 25.6719C62.816 25.3471 62.3984 24.8913 62.1034 24.3047C61.8118 23.7147 61.6659 23.0237 61.6659 22.2315C61.6659 21.4493 61.8118 20.7599 62.1034 20.1634C62.3984 19.5668 62.8094 19.1011 63.3364 18.7663C63.8667 18.4316 64.4865 18.2642 65.1957 18.2642C65.6266 18.2642 66.0442 18.3355 66.4486 18.478C66.8529 18.6205 67.2159 18.8442 67.5374 19.1491C67.8589 19.4541 68.1124 19.8501 68.298 20.3374C68.4836 20.8213 68.5764 21.4096 68.5764 22.1023V22.6293H62.5061V21.5156H67.1198C67.1198 21.1245 67.0402 20.7782 66.8811 20.4766C66.722 20.1716 66.4983 19.9313 66.21 19.7557C65.9249 19.58 65.5902 19.4922 65.2057 19.4922C64.7881 19.4922 64.4235 19.5949 64.1119 19.8004C63.8037 20.0026 63.5651 20.2678 63.396 20.5959C63.2303 20.9207 63.1475 21.2737 63.1475 21.6548V22.5249C63.1475 23.0353 63.2369 23.4695 63.4159 23.8274C63.5982 24.1854 63.8518 24.4588 64.1766 24.6477C64.5014 24.8333 64.8809 24.9261 65.3151 24.9261C65.5968 24.9261 65.8537 24.8864 66.0857 24.8068C66.3177 24.724 66.5182 24.6013 66.6872 24.4389C66.8563 24.2765 66.9855 24.076 67.075 23.8374L68.482 24.0909C68.3693 24.5052 68.1671 24.8681 67.8754 25.1797C67.5871 25.4879 67.2242 25.7282 66.7867 25.9006C66.3525 26.0696 65.857 26.1541 65.3002 26.1541ZM73.7064 18.3636V19.5568H69.5352V18.3636H73.7064ZM70.6538 16.5341H72.1403V23.7578C72.1403 24.0462 72.1834 24.2633 72.2696 24.4091C72.3558 24.5516 72.4668 24.6494 72.6027 24.7024C72.7419 24.7521 72.8927 24.777 73.0551 24.777C73.1744 24.777 73.2788 24.7687 73.3683 24.7521C73.4578 24.7356 73.5274 24.7223 73.5771 24.7124L73.8456 25.9403C73.7594 25.9735 73.6368 26.0066 73.4777 26.0398C73.3186 26.0762 73.1197 26.0961 72.8811 26.0994C72.49 26.1061 72.1254 26.0365 71.7874 25.8906C71.4493 25.7448 71.1758 25.5194 70.967 25.2145C70.7582 24.9096 70.6538 24.5268 70.6538 24.0661V16.5341ZM77.489 26.169C77.0051 26.169 76.5676 26.0795 76.1765 25.9006C75.7854 25.7183 75.4755 25.4548 75.2469 25.1101C75.0215 24.7654 74.9088 24.3428 74.9088 23.8423C74.9088 23.4115 74.9916 23.0568 75.1574 22.7784C75.3231 22.5 75.5468 22.2796 75.8285 22.1172C76.1103 21.9548 76.4251 21.8321 76.7731 21.7493C77.1211 21.6664 77.4758 21.6035 77.8371 21.5604C78.2944 21.5073 78.6657 21.4643 78.9507 21.4311C79.2357 21.3946 79.4429 21.3366 79.5721 21.2571C79.7014 21.1776 79.766 21.0483 79.766 20.8693V20.8345C79.766 20.4003 79.6434 20.0639 79.3981 19.8253C79.1562 19.5866 78.7949 19.4673 78.3143 19.4673C77.8139 19.4673 77.4194 19.5784 77.1311 19.8004C76.8461 20.0192 76.6488 20.2628 76.5395 20.5312L75.1425 20.2131C75.3082 19.7491 75.5501 19.3745 75.8683 19.0895C76.1898 18.8011 76.5594 18.5923 76.977 18.4631C77.3946 18.3305 77.8337 18.2642 78.2944 18.2642C78.5994 18.2642 78.9225 18.3007 79.2639 18.3736C79.6086 18.4432 79.9301 18.5724 80.2284 18.7614C80.53 18.9503 80.7769 19.2204 80.9692 19.5717C81.1614 19.9197 81.2575 20.3722 81.2575 20.929V26H79.8058V24.956H79.7461C79.65 25.1482 79.5059 25.3371 79.3136 25.5227C79.1214 25.7083 78.8745 25.8625 78.5728 25.9851C78.2712 26.1077 77.91 26.169 77.489 26.169ZM77.8122 24.9759C78.2232 24.9759 78.5745 24.8946 78.8662 24.7322C79.1612 24.5698 79.3849 24.3577 79.5373 24.0959C79.6931 23.8307 79.771 23.5473 79.771 23.2457V22.2614C79.718 22.3144 79.6152 22.3641 79.4628 22.4105C79.3136 22.4536 79.1429 22.4917 78.9507 22.5249C78.7585 22.5547 78.5712 22.5829 78.3889 22.6094C78.2066 22.6326 78.0541 22.6525 77.9315 22.669C77.6432 22.7055 77.3797 22.7668 77.141 22.853C76.9057 22.9392 76.7168 23.0634 76.5743 23.2259C76.4351 23.3849 76.3655 23.5971 76.3655 23.8622C76.3655 24.2301 76.5014 24.5085 76.7731 24.6974C77.0449 24.883 77.3913 24.9759 77.8122 24.9759ZM83.1534 26V18.3636H84.64V26H83.1534ZM83.9042 17.1854C83.6456 17.1854 83.4236 17.0992 83.238 16.9268C83.0557 16.7512 82.9645 16.5424 82.9645 16.3004C82.9645 16.0552 83.0557 15.8464 83.238 15.674C83.4236 15.4983 83.6456 15.4105 83.9042 15.4105C84.1627 15.4105 84.3831 15.4983 84.5654 15.674C84.751 15.8464 84.8438 16.0552 84.8438 16.3004C84.8438 16.5424 84.751 16.7512 84.5654 16.9268C84.3831 17.0992 84.1627 17.1854 83.9042 17.1854ZM88.0423 15.8182V26H86.5558V15.8182H88.0423ZM95.6804 20.228L94.3331 20.4666C94.2768 20.2943 94.1873 20.1302 94.0646 19.9744C93.9453 19.8187 93.7829 19.6911 93.5774 19.5916C93.3719 19.4922 93.1151 19.4425 92.8068 19.4425C92.3859 19.4425 92.0346 19.5369 91.7528 19.7259C91.4711 19.9115 91.3303 20.1518 91.3303 20.4467C91.3303 20.7019 91.4247 20.9074 91.6136 21.0632C91.8026 21.219 92.1075 21.3466 92.5284 21.446L93.7415 21.7244C94.4441 21.8868 94.9678 22.1371 95.3125 22.4751C95.6572 22.8132 95.8295 23.2524 95.8295 23.7926C95.8295 24.25 95.697 24.6577 95.4318 25.0156C95.17 25.3703 94.8037 25.6487 94.3331 25.8509C93.8658 26.053 93.3239 26.1541 92.7074 26.1541C91.8523 26.1541 91.1546 25.9718 90.6143 25.6072C90.0741 25.2393 89.7427 24.7173 89.62 24.0412L91.0568 23.8224C91.1463 24.197 91.3303 24.4804 91.6087 24.6726C91.8871 24.8615 92.25 24.956 92.6974 24.956C93.1847 24.956 93.5741 24.8549 93.8658 24.6527C94.1574 24.4472 94.3033 24.197 94.3033 23.902C94.3033 23.6634 94.2138 23.4628 94.0348 23.3004C93.8591 23.138 93.589 23.0154 93.2244 22.9325L91.9318 22.6491C91.2192 22.4867 90.6922 22.2282 90.3509 21.8736C90.0128 21.5189 89.8438 21.0698 89.8438 20.5263C89.8438 20.0755 89.9697 19.6811 90.2216 19.343C90.4735 19.005 90.8215 18.7415 91.2656 18.5526C91.7098 18.3603 92.2185 18.2642 92.7919 18.2642C93.6172 18.2642 94.2668 18.4432 94.7408 18.8011C95.2147 19.1558 95.5279 19.6314 95.6804 20.228Z" fill="white"/>
<path d="M113.5 16.5V18H109.75V26.25H118V22.5H119.5V27C119.5 27.1989 119.421 27.3897 119.28 27.5303C119.14 27.671 118.949 27.75 118.75 27.75H109C108.801 27.75 108.61 27.671 108.47 27.5303C108.329 27.3897 108.25 27.1989 108.25 27V17.25C108.25 17.0511 108.329 16.8603 108.47 16.7197C108.61 16.579 108.801 16.5 109 16.5H113.5ZM121.75 14.25V20.25H120.25V16.8098L114.405 22.6552L113.345 21.5948L119.189 15.75H115.75V14.25H121.75Z" fill="white"/>
</g>
<defs>
<filter id="filter0_dd_57_126" x="0" y="0" width="137" height="44" filterUnits="userSpaceOnUse" color-interpolation-filters="sRGB">
<feFlood flood-opacity="0" result="BackgroundImageFix"/>
<feColorMatrix in="SourceAlpha" type="matrix" values="0 0 0 0 0 0 0 0 0 0 0 0 0 0 0 0 0 0 127 0" result="hardAlpha"/>
<feMorphology radius="1" operator="dilate" in="SourceAlpha" result="effect1_dropShadow_57_126"/>
<feOffset/>
<feComposite in2="hardAlpha" operator="out"/>
<feColorMatrix type="matrix" values="0 0 0 0 0.2 0 0 0 0 0.36087 0 0 0 0 1 0 0 0 1 0"/>
<feBlend mode="normal" in2="BackgroundImageFix" result="effect1_dropShadow_57_126"/>
<feColorMatrix in="SourceAlpha" type="matrix" values="0 0 0 0 0 0 0 0 0 0 0 0 0 0 0 0 0 0 127 0" result="hardAlpha"/>
<feOffset dy="1"/>
<feGaussianBlur stdDeviation="1"/>
<feComposite in2="hardAlpha" operator="out"/>
<feColorMatrix type="matrix" values="0 0 0 0 0.0533333 0 0 0 0 0.0693333 0 0 0 0 0.106667 0 0 0 0.24 0"/>
<feBlend mode="normal" in2="effect1_dropShadow_57_126" result="effect2_dropShadow_57_126"/>
<feBlend mode="normal" in="SourceGraphic" in2="effect2_dropShadow_57_126" result="shape"/>
</filter>
<linearGradient id="paint0_linear_57_126" x1="68.5" y1="1" x2="68.5" y2="41" gradientUnits="userSpaceOnUse">
<stop stop-color="white"/>
<stop offset="1" stop-color="white" stop-opacity="0"/>
</linearGradient>
<linearGradient id="paint1_linear_57_126" x1="68.5" y1="1" x2="68.5" y2="41" gradientUnits="userSpaceOnUse">
<stop stop-color="white" stop-opacity="0.12"/>
<stop offset="1" stop-color="white" stop-opacity="0"/>
</linearGradient>
</defs>
</svg>
